<?xml version="1.0" encoding="utf-8"?>
<!-- Generator: Adobe Illustrator 21.1.0, SVG Export Plug-In . SVG Version: 6.00 Build 0)  -->
<svg version="1.1" id="Layer_1" xmlns="http://www.w3.org/2000/svg" xmlns:xlink="http://www.w3.org/1999/xlink" x="0px" y="0px"
	 viewBox="0 0 232.3 59" style="enable-background:new 0 0 232.3 59;" xml:space="preserve">
<style type="text/css">
	.st0{fill:#FF7F50;}
</style>
<g>
	<path class="st0" d="M16.3,7.3h2.8l11.9,30.5c0.3,0.8,1,1.4,2.3,1.4h0.5v1.2h-9.2v-1.2h0.5c0.8,0,1.1-0.2,0.7-1.1
		c-1.1-2.8-1.9-4.9-3.2-8.3c-0.9-1.8-4.7-3.3-7.8-2.1c-3.5,1.4-7.4,4.7-9.5,9.8c-0.4,1-0.3,1.6,1,1.6h0.5v1.2H0v-1.2h0.5
		c1.6,0,2.4-0.9,2.9-2c4-10.2,8.4-21.5,11.6-29.9H16.3z M7.9,30.6c1.9-2,4.1-3.5,6.3-4.4c2.2-0.9,4.5-1.2,6.8-0.6
		c-2.3-5.9-4.6-11.8-5.5-14.2C13.1,17.2,10.4,24,7.9,30.6z"/>
	<path class="st0" d="M47.6,41.1c-1.8,0-3.3-0.2-4.8-0.6h-7.6v-1.2h0.5c1.8,0,2.5-1.2,2.5-1.8V9.2c0-0.6-0.3-0.5-0.9-0.5h-0.5V7.4
		C38.9,6.9,41,6.5,43.1,6v12.4c1.6-1,3.8-1.3,5-1.3c7.1,0,11.5,5.1,11.5,12C59.6,35.8,54.9,41.1,47.6,41.1z M43.1,22.9v14.6
		c0,0.3,0.4,1.1,1.1,1.6c0.2,0.1,0.4,0.2,0.7,0.3c1.6,0.4,3.5-0.2,5.2-1.7c1.7-1.5,3.3-3.9,4-6.8c1.4-5.4,0.1-11-3.7-12
		c-0.4-0.1-0.8-0.1-1.2-0.1C46.9,18.8,44.3,20.2,43.1,22.9z"/>
	<path class="st0" d="M88.7,29.3c0,6.7-4.7,12-12,12c-7.3,0-12-5.4-12-12c0-6.6,4.7-12,12-12C83.9,17.3,88.7,22.7,88.7,29.3z
		 M70.3,27.5c-0.8,3.1-0.7,5.9,0,8c1.4,4.2,5.1,5.5,8.8,2.3c1.7-1.5,3.2-3.9,4-6.8c1.4-5.4,0.1-11-3.6-12C79.2,19,78.7,19,78.4,19
		C75.3,19,71.6,22.3,70.3,27.5z"/>
	<path class="st0" d="M116.7,37.7v1.1l-6.5,1.9v-2.4c-1.4,1.4-3.7,2.9-7.2,2.9c-5.9,0-9.5-3-9.5-9.6V20.1c0-0.6-0.4-0.5-0.9-0.5H92
		v-1.3c2.1-0.4,4.2-0.9,6.3-1.3v0.6c0,4.6,0,9.3,0,13.9v0c0,4,0.7,6,1.5,7s1.9,1.2,3,1.2c3.5,0,7.1-4.6,7.2-7.8V20.1
		c0-0.6-0.4-0.5-0.9-0.5h-0.5v-1.3l6.2-1.3v18.8c0,1.3-0.1,1.9,1.2,1.9H116.7z"/>
	<path class="st0" d="M123.1,19.5h-4.3v-1.9h4.3v-5.8c0-0.6-0.3-0.6-0.9-0.6h-0.5V10c2.1-0.5,4.1-0.9,6.2-1.4v9h10.4v1.9h-10.4v11.8
		c0,4.3,0.8,6.4,1.8,7.4s2.2,1,3.4,1c0.8,0,2-0.2,3.2-1c1.2-0.8,2.4-2.3,3.1-4.8l0.2-0.6l4.9,2.2l-0.2,0.5
		c-1.2,2.3-4.6,5.2-11.2,5.2c-6,0-10.1-3.3-10.1-9.8V19.5z"/>
	<path class="st0" d="M192.8,17.3c5.9,0,9.5,3.1,9.5,9.6v10.8c0,0.6,0.6,1.8,2.4,1.8h0.5v1.2h-10.8v-1.2h0.5c1.9,0,2.5-1.2,2.5-1.8
		l0-10.8c0-3.9-0.7-6-1.6-7.1c-0.9-1.1-1.9-1.2-3-1.2c-3.4,0-7.2,4.7-7.2,7.9v11.1c0,0.6,0.7,1.8,2.5,1.8h0.5v1.2h-10.8v-1.2h0.5
		c1.8,0,2.4-1.2,2.4-1.8V27c0-3.9-0.7-6-1.6-7.1c-0.9-1.1-1.9-1.2-3-1.2c-3.4,0-7.1,4.6-7.2,7.8v11.2c0,0.6,0.6,1.8,2.4,1.8h0.5v1.2
		h-10.8v-1.2h0.5c1.8,0,2.4-1.2,2.4-1.8V20.3c0-0.5-0.3-0.5-0.9-0.5h-0.5v-1.2l6.2-1.3v3c1.4-1.4,3.7-2.9,7.2-2.9
		c3.9,0,6.9,1.4,8.4,4.2C186,19.2,188.7,17.3,192.8,17.3z"/>
	<path class="st0" d="M231.2,26.7l0.1,0.5l-2.8,0.5l-15.6,3.2c-0.2,4,1.2,7.6,4.1,8.4c4.6,1.2,7.7-2.3,8.9-5.6l0.2-0.6l4.6,2.3
		l-0.3,0.5c-2,3.2-5.5,5.1-10.5,5.1c-7.3,0-12-5.3-12-12c0-6.6,4.7-12,12-12C226.9,17.1,230.1,20.8,231.2,26.7z M213.5,27.4
		c-0.1,0.6-0.3,1.1-0.3,1.7l12.6-2.6c0-2-0.2-3.7-0.7-5c-0.7-1.8-1.5-2.6-3.4-2.6C218.4,18.8,214.8,22.1,213.5,27.4z"/>
</g>
</svg>
