<?xml version="1.0" encoding="utf-8"?>
<!-- Generator: Adobe Illustrator 21.1.0, SVG Export Plug-In . SVG Version: 6.00 Build 0)  -->
<svg version="1.1" id="Layer_1" xmlns="http://www.w3.org/2000/svg" xmlns:xlink="http://www.w3.org/1999/xlink" x="0px" y="0px"
	 viewBox="0 0 329 71.8" style="enable-background:new 0 0 329 71.8;" xml:space="preserve">
<style type="text/css">
	.st0{fill:#FFFFFF;}
</style>
<g>
	<path class="st0" d="M88.5,0.5v17h-1.7v-8H76.7v8H75v-17h1.7v7.6h10.1V0.5H88.5z"/>
	<path class="st0" d="M95.4,17.8c-0.6,0-1.1-0.1-1.6-0.3c-0.5-0.2-0.9-0.5-1.3-0.8s-0.7-0.8-0.9-1.2c-0.2-0.5-0.3-1-0.3-1.5
		c0-0.5,0.1-1,0.4-1.5s0.6-0.9,1.1-1.2s1-0.6,1.7-0.8c0.6-0.2,1.3-0.3,2.1-0.3c0.6,0,1.3,0.1,1.9,0.2s1.2,0.3,1.8,0.5V9.6
		c0-1.1-0.3-2-0.9-2.6c-0.6-0.6-1.5-1-2.6-1c-0.6,0-1.3,0.1-2,0.4c-0.7,0.3-1.4,0.6-2,1.1l-0.6-1.1c1.6-1.1,3.2-1.6,4.7-1.6
		c1.6,0,2.8,0.4,3.7,1.3c0.9,0.9,1.3,2.1,1.3,3.6v5.6c0,0.4,0.2,0.7,0.6,0.7v1.4c-0.3,0-0.5,0.1-0.6,0.1c-0.4,0-0.7-0.1-1-0.3
		s-0.4-0.5-0.4-0.9l0-1c-0.6,0.8-1.3,1.3-2.2,1.7C97.4,17.6,96.4,17.8,95.4,17.8z M95.8,16.5c0.8,0,1.6-0.2,2.3-0.5
		c0.7-0.3,1.3-0.7,1.6-1.3c0.1-0.1,0.3-0.3,0.3-0.5c0.1-0.2,0.1-0.3,0.1-0.5v-2c-0.5-0.2-1.1-0.4-1.7-0.5s-1.2-0.2-1.8-0.2
		c-1.2,0-2.1,0.2-2.8,0.7c-0.7,0.5-1.1,1.1-1.1,1.9c0,0.4,0.1,0.7,0.2,1.1c0.2,0.3,0.4,0.6,0.6,0.9c0.3,0.2,0.6,0.4,0.9,0.6
		C95,16.4,95.4,16.5,95.8,16.5z"/>
	<path class="st0" d="M115.9,17.5h-1.6v-7c0-1.5-0.2-2.6-0.7-3.2c-0.4-0.7-1.1-1-2-1c-0.5,0-1,0.1-1.4,0.3c-0.5,0.2-0.9,0.4-1.3,0.7
		c-0.4,0.3-0.8,0.7-1.1,1.1c-0.3,0.4-0.6,0.9-0.7,1.4v7.7h-1.6V5h1.5v2.8c0.5-0.9,1.2-1.6,2.2-2.2c1-0.6,2-0.8,3.1-0.8
		c0.7,0,1.3,0.1,1.8,0.4c0.5,0.3,0.9,0.6,1.2,1.1s0.5,1,0.6,1.7c0.1,0.7,0.2,1.4,0.2,2.2V17.5z"/>
	<path class="st0" d="M124.5,17.8c-0.9,0-1.7-0.2-2.4-0.5c-0.7-0.4-1.4-0.8-1.9-1.4c-0.5-0.6-0.9-1.3-1.2-2.1
		c-0.3-0.8-0.4-1.6-0.4-2.4c0-0.9,0.1-1.7,0.4-2.5c0.3-0.8,0.7-1.5,1.2-2.1s1.1-1.1,1.8-1.4c0.7-0.3,1.5-0.5,2.3-0.5
		c1.1,0,2,0.3,2.8,0.8c0.8,0.6,1.5,1.2,1.9,2V0h1.6v15.4c0,0.4,0.2,0.7,0.6,0.7v1.4c-0.2,0-0.4,0.1-0.6,0.1c-0.4,0-0.7-0.1-1-0.4
		s-0.4-0.5-0.4-0.9v-1.2c-0.5,0.8-1.2,1.5-2,1.9C126.3,17.5,125.4,17.8,124.5,17.8z M124.9,16.3c0.4,0,0.8-0.1,1.3-0.2
		c0.5-0.2,0.9-0.4,1.3-0.7c0.4-0.3,0.7-0.6,1-1s0.5-0.8,0.5-1.2V9.4c-0.2-0.4-0.4-0.8-0.7-1.2c-0.3-0.4-0.7-0.7-1-1
		c-0.4-0.3-0.8-0.5-1.3-0.7c-0.4-0.2-0.9-0.2-1.3-0.2c-0.7,0-1.3,0.1-1.8,0.4c-0.5,0.3-1,0.7-1.4,1.1c-0.4,0.5-0.7,1-0.9,1.6
		c-0.2,0.6-0.3,1.2-0.3,1.9c0,0.7,0.1,1.3,0.4,1.9s0.6,1.1,1,1.6c0.4,0.5,0.9,0.8,1.5,1.1C123.6,16.2,124.2,16.3,124.9,16.3z"/>
	<path class="st0" d="M152.9,17.5h-1.6v-7c0-1.5-0.2-2.5-0.7-3.2c-0.5-0.7-1.2-1-2.1-1c-0.5,0-0.9,0.1-1.4,0.3S146.3,7,146,7.3
		S145.3,8,145,8.4s-0.5,0.9-0.6,1.5v7.6h-1.6v-7c0-1.5-0.2-2.6-0.7-3.2c-0.4-0.7-1.1-1-2.1-1c-0.9,0-1.8,0.3-2.5,1
		c-0.7,0.7-1.3,1.5-1.6,2.6v7.7h-1.6V5h1.5v2.8c0.5-1,1.2-1.7,2-2.2c0.8-0.5,1.8-0.8,2.8-0.8c1.1,0,1.9,0.3,2.5,0.9
		c0.6,0.6,1,1.4,1.2,2.3c1.2-2.1,2.8-3.2,4.8-3.2c0.7,0,1.3,0.1,1.8,0.4c0.5,0.3,0.9,0.6,1.2,1.1s0.5,1,0.6,1.7s0.2,1.4,0.2,2.2
		V17.5z"/>
	<path class="st0" d="M159.5,17.8c-0.6,0-1.1-0.1-1.6-0.3c-0.5-0.2-0.9-0.5-1.3-0.8s-0.7-0.8-0.9-1.2c-0.2-0.5-0.3-1-0.3-1.5
		c0-0.5,0.1-1,0.4-1.5s0.6-0.9,1.1-1.2s1-0.6,1.7-0.8c0.6-0.2,1.3-0.3,2.1-0.3c0.6,0,1.3,0.1,1.9,0.2s1.2,0.3,1.8,0.5V9.6
		c0-1.1-0.3-2-0.9-2.6c-0.6-0.6-1.5-1-2.6-1c-0.6,0-1.3,0.1-2,0.4c-0.7,0.3-1.4,0.6-2,1.1l-0.6-1.1c1.6-1.1,3.2-1.6,4.7-1.6
		c1.6,0,2.8,0.4,3.7,1.3c0.9,0.9,1.3,2.1,1.3,3.6v5.6c0,0.4,0.2,0.7,0.6,0.7v1.4c-0.3,0-0.5,0.1-0.6,0.1c-0.4,0-0.7-0.1-1-0.3
		s-0.4-0.5-0.4-0.9l0-1c-0.6,0.8-1.3,1.3-2.2,1.7C161.4,17.6,160.5,17.8,159.5,17.8z M159.9,16.5c0.8,0,1.6-0.2,2.3-0.5
		c0.7-0.3,1.3-0.7,1.6-1.3c0.1-0.1,0.3-0.3,0.3-0.5c0.1-0.2,0.1-0.3,0.1-0.5v-2c-0.5-0.2-1.1-0.4-1.7-0.5s-1.2-0.2-1.8-0.2
		c-1.2,0-2.1,0.2-2.8,0.7c-0.7,0.5-1.1,1.1-1.1,1.9c0,0.4,0.1,0.7,0.2,1.1c0.2,0.3,0.4,0.6,0.6,0.9c0.3,0.2,0.6,0.4,0.9,0.6
		C159.1,16.4,159.5,16.5,159.9,16.5z"/>
	<path class="st0" d="M174.6,17.8c-0.9,0-1.7-0.2-2.4-0.5c-0.7-0.4-1.4-0.8-1.9-1.4c-0.5-0.6-0.9-1.3-1.2-2.1
		c-0.3-0.8-0.4-1.6-0.4-2.4c0-0.9,0.1-1.7,0.4-2.5c0.3-0.8,0.7-1.5,1.2-2.1s1.1-1.1,1.8-1.4c0.7-0.3,1.5-0.5,2.3-0.5
		c1.1,0,2,0.3,2.8,0.8c0.8,0.6,1.5,1.2,1.9,2V0h1.6v15.4c0,0.4,0.2,0.7,0.6,0.7v1.4c-0.2,0-0.4,0.1-0.6,0.1c-0.4,0-0.7-0.1-1-0.4
		s-0.4-0.5-0.4-0.9v-1.2c-0.5,0.8-1.2,1.5-2,1.9C176.4,17.5,175.5,17.8,174.6,17.8z M174.9,16.3c0.4,0,0.8-0.1,1.3-0.2
		c0.5-0.2,0.9-0.4,1.3-0.7c0.4-0.3,0.7-0.6,1-1c0.3-0.4,0.5-0.8,0.5-1.2V9.4c-0.2-0.4-0.4-0.8-0.7-1.2c-0.3-0.4-0.7-0.7-1-1
		c-0.4-0.3-0.8-0.5-1.3-0.7c-0.4-0.2-0.9-0.2-1.3-0.2c-0.7,0-1.3,0.1-1.8,0.4c-0.5,0.3-1,0.7-1.4,1.1c-0.4,0.5-0.7,1-0.9,1.6
		s-0.3,1.2-0.3,1.9c0,0.7,0.1,1.3,0.4,1.9s0.6,1.1,1,1.6c0.4,0.5,0.9,0.8,1.5,1.1C173.7,16.2,174.3,16.3,174.9,16.3z"/>
	<path class="st0" d="M189.8,17.8c-0.9,0-1.7-0.2-2.5-0.5c-0.8-0.3-1.4-0.8-2-1.4c-0.6-0.6-1-1.3-1.3-2.1c-0.3-0.8-0.5-1.6-0.5-2.5
		c0-0.9,0.2-1.7,0.5-2.5c0.3-0.8,0.7-1.5,1.3-2s1.2-1,2-1.4c0.8-0.3,1.6-0.5,2.5-0.5c0.9,0,1.7,0.2,2.5,0.5s1.4,0.8,2,1.4
		s1,1.3,1.3,2c0.3,0.8,0.5,1.6,0.5,2.4c0,0.1,0,0.3,0,0.4c0,0.1,0,0.2,0,0.3h-10.7c0,0.7,0.2,1.3,0.5,1.9s0.6,1.1,1,1.5
		c0.4,0.4,0.9,0.7,1.4,1c0.5,0.2,1.1,0.3,1.7,0.3c0.4,0,0.8-0.1,1.2-0.2c0.4-0.1,0.8-0.3,1.1-0.5c0.3-0.2,0.6-0.4,0.9-0.7
		c0.3-0.3,0.5-0.6,0.6-0.9l1.4,0.4c-0.2,0.5-0.5,0.9-0.8,1.3c-0.4,0.4-0.8,0.7-1.2,1c-0.5,0.3-1,0.5-1.5,0.6
		C190.9,17.7,190.4,17.8,189.8,17.8z M194.4,10.6c0-0.7-0.2-1.3-0.5-1.8s-0.6-1-1-1.4s-0.9-0.7-1.4-0.9c-0.5-0.2-1.1-0.3-1.7-0.3
		c-0.6,0-1.2,0.1-1.7,0.3c-0.5,0.2-1,0.5-1.4,0.9c-0.4,0.4-0.7,0.9-1,1.4c-0.2,0.6-0.4,1.2-0.4,1.8H194.4z"/>
	<path class="st0" d="M210.7,17.8c-1,0-1.9-0.2-2.7-0.7c-0.8-0.5-1.5-1.1-1.9-1.9v2.4h-1.5V0h1.6v7.6c0.6-0.8,1.2-1.5,2-2.1
		c0.8-0.5,1.7-0.8,2.7-0.8c0.9,0,1.7,0.2,2.4,0.6s1.3,0.9,1.8,1.5c0.5,0.6,0.9,1.3,1.1,2.1c0.3,0.8,0.4,1.6,0.4,2.4
		c0,0.9-0.2,1.7-0.5,2.5c-0.3,0.8-0.7,1.5-1.2,2.1c-0.5,0.6-1.2,1-1.9,1.4C212.3,17.6,211.5,17.8,210.7,17.8z M210.3,16.3
		c0.7,0,1.3-0.1,1.9-0.4c0.6-0.3,1.1-0.7,1.5-1.1s0.7-1,1-1.6c0.2-0.6,0.3-1.2,0.3-1.9c0-0.7-0.1-1.3-0.3-1.9
		c-0.2-0.6-0.5-1.1-0.9-1.6c-0.4-0.5-0.9-0.8-1.4-1.1c-0.6-0.3-1.2-0.4-1.8-0.4c-0.5,0-1,0.1-1.4,0.3s-0.8,0.4-1.2,0.7
		c-0.4,0.3-0.7,0.6-1,1c-0.3,0.4-0.5,0.8-0.7,1.2v3.9c0.1,0.4,0.2,0.8,0.5,1.2c0.3,0.4,0.6,0.7,1,1c0.4,0.3,0.8,0.5,1.3,0.6
		C209.4,16.2,209.9,16.3,210.3,16.3z"/>
	<path class="st0" d="M224.7,17.8c-0.9,0-1.7-0.2-2.5-0.5s-1.4-0.8-2-1.4c-0.6-0.6-1-1.3-1.3-2.1s-0.5-1.6-0.5-2.5
		c0-0.9,0.2-1.7,0.5-2.5c0.3-0.8,0.7-1.5,1.3-2.1s1.2-1.1,2-1.4c0.8-0.4,1.6-0.5,2.5-0.5c0.9,0,1.7,0.2,2.5,0.5
		c0.8,0.4,1.4,0.8,2,1.4s1,1.3,1.3,2.1c0.3,0.8,0.5,1.6,0.5,2.5c0,0.9-0.2,1.7-0.5,2.5s-0.7,1.5-1.3,2.1c-0.6,0.6-1.2,1.1-2,1.4
		S225.6,17.8,224.7,17.8z M220.2,11.3c0,0.7,0.1,1.4,0.4,2c0.2,0.6,0.6,1.1,1,1.6c0.4,0.5,0.9,0.8,1.4,1.1c0.6,0.3,1.1,0.4,1.8,0.4
		s1.2-0.1,1.8-0.4c0.6-0.3,1-0.6,1.5-1.1s0.7-1,1-1.6c0.2-0.6,0.4-1.3,0.4-2c0-0.7-0.1-1.3-0.4-2c-0.2-0.6-0.6-1.2-1-1.6
		c-0.4-0.5-0.9-0.8-1.5-1.1c-0.6-0.3-1.1-0.4-1.8-0.4s-1.2,0.1-1.8,0.4s-1,0.6-1.4,1.1c-0.4,0.5-0.7,1-1,1.6S220.2,10.6,220.2,11.3z
		"/>
	<path class="st0" d="M239,17.8c-0.9,0-1.7-0.2-2.5-0.5s-1.4-0.8-2-1.4c-0.6-0.6-1-1.3-1.3-2.1s-0.5-1.6-0.5-2.5
		c0-0.9,0.2-1.7,0.5-2.5c0.3-0.8,0.7-1.5,1.3-2.1s1.2-1.1,2-1.4c0.8-0.4,1.6-0.5,2.5-0.5c0.9,0,1.7,0.2,2.5,0.5
		c0.8,0.4,1.4,0.8,2,1.4s1,1.3,1.3,2.1c0.3,0.8,0.5,1.6,0.5,2.5c0,0.9-0.2,1.7-0.5,2.5s-0.7,1.5-1.3,2.1c-0.6,0.6-1.2,1.1-2,1.4
		S239.9,17.8,239,17.8z M234.4,11.3c0,0.7,0.1,1.4,0.4,2c0.2,0.6,0.6,1.1,1,1.6c0.4,0.5,0.9,0.8,1.4,1.1c0.6,0.3,1.1,0.4,1.8,0.4
		s1.2-0.1,1.8-0.4c0.6-0.3,1-0.6,1.5-1.1s0.7-1,1-1.6c0.2-0.6,0.4-1.3,0.4-2c0-0.7-0.1-1.3-0.4-2c-0.2-0.6-0.6-1.2-1-1.6
		c-0.4-0.5-0.9-0.8-1.5-1.1c-0.6-0.3-1.1-0.4-1.8-0.4s-1.2,0.1-1.8,0.4s-1,0.6-1.4,1.1c-0.4,0.5-0.7,1-1,1.6S234.4,10.6,234.4,11.3z
		"/>
	<path class="st0" d="M256.9,17.5l-4.6-6.4l-2.7,2.5v3.9h-1.6V0h1.6v11.9l7-6.9h1.8l-5.1,5.1l5.3,7.4H256.9z"/>
</g>
<g>
	<path class="st0" d="M3.6,33.5h0.7L7.8,42H6.9l-1.1-2.7H2L0.9,42H0L3.6,33.5z M5.6,38.7l-1.7-4.2l-1.7,4.2H5.6z"/>
	<path class="st0" d="M14.6,42.1c-0.5,0-1-0.1-1.4-0.4c-0.4-0.2-0.7-0.6-1-1V42h-0.7v-8.8h0.8v3.8c0.3-0.4,0.6-0.8,1-1
		c0.4-0.3,0.8-0.4,1.4-0.4c0.4,0,0.8,0.1,1.2,0.3c0.3,0.2,0.6,0.4,0.9,0.7c0.2,0.3,0.4,0.7,0.6,1c0.1,0.4,0.2,0.8,0.2,1.2
		c0,0.4-0.1,0.9-0.2,1.2c-0.2,0.4-0.4,0.7-0.6,1c-0.3,0.3-0.6,0.5-0.9,0.7C15.4,42.1,15,42.1,14.6,42.1z M14.4,41.4
		c0.3,0,0.7-0.1,0.9-0.2c0.3-0.1,0.5-0.3,0.7-0.6s0.4-0.5,0.5-0.8c0.1-0.3,0.2-0.6,0.2-0.9c0-0.3-0.1-0.6-0.2-0.9
		c-0.1-0.3-0.3-0.6-0.5-0.8c-0.2-0.2-0.4-0.4-0.7-0.6c-0.3-0.1-0.6-0.2-0.9-0.2c-0.2,0-0.5,0-0.7,0.1s-0.4,0.2-0.6,0.3
		c-0.2,0.1-0.3,0.3-0.5,0.5c-0.1,0.2-0.3,0.4-0.4,0.6v1.9c0,0.2,0.1,0.4,0.3,0.6c0.1,0.2,0.3,0.3,0.5,0.5c0.2,0.1,0.4,0.2,0.6,0.3
		C14,41.4,14.2,41.4,14.4,41.4z"/>
	<path class="st0" d="M21.6,42.1c-0.5,0-0.9-0.1-1.2-0.3c-0.4-0.2-0.7-0.4-1-0.7s-0.5-0.6-0.6-1s-0.2-0.8-0.2-1.2
		c0-0.4,0.1-0.9,0.2-1.2c0.2-0.4,0.4-0.7,0.6-1c0.3-0.3,0.6-0.5,1-0.7c0.4-0.2,0.8-0.3,1.2-0.3c0.4,0,0.9,0.1,1.2,0.3
		c0.4,0.2,0.7,0.4,1,0.7c0.3,0.3,0.5,0.6,0.6,1c0.2,0.4,0.2,0.8,0.2,1.2c0,0.4-0.1,0.8-0.2,1.2s-0.4,0.7-0.6,1
		c-0.3,0.3-0.6,0.5-1,0.7C22.5,42.1,22.1,42.1,21.6,42.1z M19.4,38.9c0,0.4,0.1,0.7,0.2,1s0.3,0.6,0.5,0.8c0.2,0.2,0.4,0.4,0.7,0.5
		c0.3,0.1,0.6,0.2,0.9,0.2s0.6-0.1,0.9-0.2c0.3-0.1,0.5-0.3,0.7-0.5c0.2-0.2,0.4-0.5,0.5-0.8c0.1-0.3,0.2-0.6,0.2-1
		c0-0.3-0.1-0.7-0.2-1c-0.1-0.3-0.3-0.6-0.5-0.8c-0.2-0.2-0.4-0.4-0.7-0.5c-0.3-0.1-0.6-0.2-0.9-0.2s-0.6,0.1-0.9,0.2
		s-0.5,0.3-0.7,0.5c-0.2,0.2-0.4,0.5-0.5,0.8C19.4,38.2,19.4,38.6,19.4,38.9z"/>
	<path class="st0" d="M28.8,42.1c-0.5,0-0.9-0.1-1.2-0.3c-0.4-0.2-0.7-0.4-1-0.7s-0.5-0.6-0.6-1s-0.2-0.8-0.2-1.2
		c0-0.4,0.1-0.9,0.2-1.2c0.2-0.4,0.4-0.7,0.6-1c0.3-0.3,0.6-0.5,1-0.7c0.4-0.2,0.8-0.3,1.2-0.3c0.4,0,0.9,0.1,1.2,0.3
		c0.4,0.2,0.7,0.4,1,0.7c0.3,0.3,0.5,0.6,0.6,1c0.2,0.4,0.2,0.8,0.2,1.2c0,0.4-0.1,0.8-0.2,1.2s-0.4,0.7-0.6,1
		c-0.3,0.3-0.6,0.5-1,0.7C29.6,42.1,29.2,42.1,28.8,42.1z M26.5,38.9c0,0.4,0.1,0.7,0.2,1s0.3,0.6,0.5,0.8c0.2,0.2,0.4,0.4,0.7,0.5
		c0.3,0.1,0.6,0.2,0.9,0.2s0.6-0.1,0.9-0.2c0.3-0.1,0.5-0.3,0.7-0.5c0.2-0.2,0.4-0.5,0.5-0.8c0.1-0.3,0.2-0.6,0.2-1
		c0-0.3-0.1-0.7-0.2-1c-0.1-0.3-0.3-0.6-0.5-0.8c-0.2-0.2-0.4-0.4-0.7-0.5c-0.3-0.1-0.6-0.2-0.9-0.2s-0.6,0.1-0.9,0.2
		s-0.5,0.3-0.7,0.5c-0.2,0.2-0.4,0.5-0.5,0.8C26.6,38.2,26.5,38.6,26.5,38.9z"/>
	<path class="st0" d="M37.7,42l-2.3-3.2l-1.3,1.2v2h-0.8v-8.8h0.8v6l3.5-3.4h0.9l-2.6,2.6l2.7,3.7H37.7z"/>
	<path class="st0" d="M44.2,42.1c-0.3,0-0.6-0.1-0.8-0.2s-0.5-0.2-0.7-0.4c-0.2-0.2-0.3-0.4-0.4-0.6c-0.1-0.2-0.2-0.5-0.2-0.8
		c0-0.3,0.1-0.5,0.2-0.8s0.3-0.4,0.5-0.6s0.5-0.3,0.8-0.4c0.3-0.1,0.7-0.1,1.1-0.1c0.3,0,0.6,0,1,0.1s0.6,0.1,0.9,0.2v-0.6
		c0-0.6-0.2-1-0.5-1.3c-0.3-0.3-0.7-0.5-1.3-0.5c-0.3,0-0.6,0.1-1,0.2c-0.3,0.1-0.7,0.3-1,0.6l-0.3-0.5c0.8-0.5,1.6-0.8,2.4-0.8
		c0.8,0,1.4,0.2,1.8,0.7c0.4,0.4,0.7,1,0.7,1.8V41c0,0.2,0.1,0.3,0.3,0.3V42c-0.1,0-0.2,0-0.3,0c-0.2,0-0.4-0.1-0.5-0.2
		c-0.1-0.1-0.2-0.2-0.2-0.4l0-0.5c-0.3,0.4-0.6,0.7-1.1,0.9C45.2,42,44.7,42.1,44.2,42.1z M44.4,41.5c0.4,0,0.8-0.1,1.2-0.2
		s0.6-0.4,0.8-0.6c0.1-0.1,0.1-0.2,0.2-0.2c0-0.1,0.1-0.2,0.1-0.2v-1c-0.3-0.1-0.6-0.2-0.8-0.2c-0.3-0.1-0.6-0.1-0.9-0.1
		c-0.6,0-1,0.1-1.4,0.4c-0.4,0.2-0.5,0.6-0.5,0.9c0,0.2,0,0.4,0.1,0.5c0.1,0.2,0.2,0.3,0.3,0.4s0.3,0.2,0.5,0.3
		C44,41.5,44.2,41.5,44.4,41.5z"/>
	<path class="st0" d="M52.3,42.1c-0.5,0-1-0.1-1.4-0.4c-0.4-0.2-0.7-0.6-1-1V42h-0.7v-8.8H50v3.8c0.3-0.4,0.6-0.8,1-1
		c0.4-0.3,0.8-0.4,1.4-0.4c0.4,0,0.8,0.1,1.2,0.3c0.3,0.2,0.6,0.4,0.9,0.7c0.2,0.3,0.4,0.7,0.6,1c0.1,0.4,0.2,0.8,0.2,1.2
		c0,0.4-0.1,0.9-0.2,1.2c-0.2,0.4-0.4,0.7-0.6,1c-0.3,0.3-0.6,0.5-0.9,0.7C53.1,42.1,52.7,42.1,52.3,42.1z M52.1,41.4
		c0.3,0,0.7-0.1,0.9-0.2c0.3-0.1,0.5-0.3,0.7-0.6s0.4-0.5,0.5-0.8c0.1-0.3,0.2-0.6,0.2-0.9c0-0.3-0.1-0.6-0.2-0.9
		c-0.1-0.3-0.3-0.6-0.5-0.8c-0.2-0.2-0.4-0.4-0.7-0.6c-0.3-0.1-0.6-0.2-0.9-0.2c-0.2,0-0.5,0-0.7,0.1s-0.4,0.2-0.6,0.3
		c-0.2,0.1-0.3,0.3-0.5,0.5c-0.1,0.2-0.3,0.4-0.4,0.6v1.9c0,0.2,0.1,0.4,0.3,0.6c0.1,0.2,0.3,0.3,0.5,0.5c0.2,0.1,0.4,0.2,0.6,0.3
		C51.6,41.4,51.9,41.4,52.1,41.4z"/>
	<path class="st0" d="M59.3,42.1c-0.5,0-0.9-0.1-1.2-0.3c-0.4-0.2-0.7-0.4-1-0.7s-0.5-0.6-0.6-1s-0.2-0.8-0.2-1.2
		c0-0.4,0.1-0.9,0.2-1.2c0.2-0.4,0.4-0.7,0.6-1c0.3-0.3,0.6-0.5,1-0.7c0.4-0.2,0.8-0.3,1.2-0.3c0.4,0,0.9,0.1,1.2,0.3
		c0.4,0.2,0.7,0.4,1,0.7c0.3,0.3,0.5,0.6,0.6,1c0.2,0.4,0.2,0.8,0.2,1.2c0,0.4-0.1,0.8-0.2,1.2s-0.4,0.7-0.6,1
		c-0.3,0.3-0.6,0.5-1,0.7C60.1,42.1,59.7,42.1,59.3,42.1z M57,38.9c0,0.4,0.1,0.7,0.2,1s0.3,0.6,0.5,0.8c0.2,0.2,0.4,0.4,0.7,0.5
		c0.3,0.1,0.6,0.2,0.9,0.2s0.6-0.1,0.9-0.2c0.3-0.1,0.5-0.3,0.7-0.5c0.2-0.2,0.4-0.5,0.5-0.8c0.1-0.3,0.2-0.6,0.2-1
		c0-0.3-0.1-0.7-0.2-1c-0.1-0.3-0.3-0.6-0.5-0.8c-0.2-0.2-0.4-0.4-0.7-0.5c-0.3-0.1-0.6-0.2-0.9-0.2s-0.6,0.1-0.9,0.2
		s-0.5,0.3-0.7,0.5c-0.2,0.2-0.4,0.5-0.5,0.8C57.1,38.2,57,38.6,57,38.9z"/>
	<path class="st0" d="M65.7,42.1c-0.7,0-1.2-0.2-1.5-0.7c-0.3-0.5-0.5-1.1-0.5-2v-3.7h0.8v3.5c0,1.4,0.5,2.1,1.5,2.1
		c0.2,0,0.5,0,0.7-0.1c0.2-0.1,0.4-0.2,0.6-0.3c0.2-0.2,0.4-0.3,0.5-0.5c0.2-0.2,0.3-0.4,0.4-0.7v-3.9H69V41c0,0.2,0.1,0.3,0.3,0.3
		V42c-0.1,0-0.2,0-0.2,0S69,42,69,42c-0.2,0-0.3-0.1-0.5-0.2c-0.1-0.1-0.2-0.3-0.2-0.5v-0.7c-0.3,0.5-0.6,0.9-1.1,1.1
		C66.7,42,66.2,42.1,65.7,42.1z"/>
	<path class="st0" d="M73.9,41.7c0,0-0.1,0.1-0.2,0.1s-0.2,0.1-0.3,0.1S73.1,42,72.9,42c-0.2,0-0.3,0-0.5,0c-0.2,0-0.3,0-0.5-0.1
		s-0.3-0.1-0.4-0.2c-0.1-0.1-0.2-0.2-0.3-0.4c-0.1-0.2-0.1-0.3-0.1-0.5v-4.5h-0.9v-0.6h0.9v-2.1H72v2.1h1.4v0.6H72v4.2
		c0,0.2,0.1,0.4,0.2,0.5c0.1,0.1,0.3,0.2,0.5,0.2c0.2,0,0.4,0,0.6-0.1c0.2-0.1,0.3-0.1,0.3-0.2L73.9,41.7z"/>
	<path class="st0" d="M81,41.7c0,0-0.1,0.1-0.2,0.1s-0.2,0.1-0.3,0.1S80.2,42,80,42c-0.2,0-0.3,0-0.5,0c-0.2,0-0.3,0-0.5-0.1
		s-0.3-0.1-0.4-0.2c-0.1-0.1-0.2-0.2-0.3-0.4c-0.1-0.2-0.1-0.3-0.1-0.5v-4.5h-0.9v-0.6h0.9v-2.1H79v2.1h1.4v0.6H79v4.2
		c0,0.2,0.1,0.4,0.2,0.5c0.1,0.1,0.3,0.2,0.5,0.2c0.2,0,0.4,0,0.6-0.1c0.2-0.1,0.3-0.1,0.3-0.2L81,41.7z"/>
	<path class="st0" d="M87.2,42h-0.8v-3.5c0-0.7-0.1-1.2-0.4-1.6c-0.2-0.4-0.6-0.5-1.1-0.5c-0.2,0-0.5,0-0.7,0.1
		c-0.2,0.1-0.4,0.2-0.6,0.4c-0.2,0.2-0.4,0.3-0.5,0.6s-0.3,0.5-0.3,0.7V42H82v-8.8h0.8v3.9c0.2-0.5,0.6-0.8,1-1.1s0.9-0.4,1.4-0.4
		c0.4,0,0.7,0.1,0.9,0.2s0.5,0.3,0.6,0.6c0.2,0.2,0.3,0.5,0.3,0.9c0.1,0.3,0.1,0.7,0.1,1.1V42z"/>
	<path class="st0" d="M91.7,42.1c-0.5,0-0.9-0.1-1.3-0.3c-0.4-0.2-0.7-0.4-1-0.7c-0.3-0.3-0.5-0.6-0.7-1c-0.2-0.4-0.2-0.8-0.2-1.3
		c0-0.4,0.1-0.9,0.2-1.2c0.2-0.4,0.4-0.7,0.6-1s0.6-0.5,1-0.7c0.4-0.2,0.8-0.3,1.2-0.3c0.5,0,0.9,0.1,1.3,0.3c0.4,0.2,0.7,0.4,1,0.7
		s0.5,0.6,0.6,1c0.2,0.4,0.2,0.8,0.2,1.2c0,0.1,0,0.1,0,0.2c0,0.1,0,0.1,0,0.1h-5.4c0,0.3,0.1,0.6,0.2,0.9c0.1,0.3,0.3,0.5,0.5,0.7
		s0.4,0.4,0.7,0.5c0.3,0.1,0.6,0.2,0.9,0.2c0.2,0,0.4,0,0.6-0.1c0.2-0.1,0.4-0.1,0.6-0.2s0.3-0.2,0.5-0.4c0.1-0.1,0.2-0.3,0.3-0.5
		l0.7,0.2c-0.1,0.2-0.2,0.4-0.4,0.6c-0.2,0.2-0.4,0.4-0.6,0.5c-0.2,0.1-0.5,0.2-0.8,0.3C92.3,42.1,92,42.1,91.7,42.1z M94,38.6
		c0-0.3-0.1-0.6-0.2-0.9c-0.1-0.3-0.3-0.5-0.5-0.7s-0.4-0.4-0.7-0.5c-0.3-0.1-0.6-0.2-0.9-0.2c-0.3,0-0.6,0.1-0.9,0.2
		c-0.3,0.1-0.5,0.3-0.7,0.5s-0.4,0.4-0.5,0.7s-0.2,0.6-0.2,0.9H94z"/>
	<path class="st0" d="M101.1,42.1c-0.5,0-1-0.1-1.4-0.2s-0.9-0.4-1.2-0.7l0.4-0.6c0.4,0.3,0.7,0.5,1.1,0.6c0.4,0.1,0.8,0.2,1.2,0.2
		c0.5,0,0.9-0.1,1.2-0.3c0.3-0.2,0.5-0.5,0.5-0.9c0-0.2,0-0.3-0.1-0.4s-0.2-0.2-0.4-0.3s-0.4-0.2-0.6-0.2c-0.2-0.1-0.5-0.1-0.8-0.2
		c-0.4-0.1-0.7-0.2-0.9-0.3c-0.3-0.1-0.5-0.2-0.7-0.3c-0.2-0.1-0.3-0.3-0.4-0.4c-0.1-0.2-0.1-0.4-0.1-0.6c0-0.3,0.1-0.6,0.2-0.8
		s0.3-0.4,0.5-0.6c0.2-0.2,0.5-0.3,0.7-0.4c0.3-0.1,0.6-0.1,0.9-0.1c0.5,0,0.9,0.1,1.3,0.2c0.4,0.2,0.7,0.4,0.9,0.6L103,37
		c-0.2-0.2-0.5-0.4-0.8-0.5c-0.3-0.1-0.7-0.2-1-0.2c-0.2,0-0.4,0-0.6,0.1c-0.2,0-0.3,0.1-0.5,0.2c-0.1,0.1-0.3,0.2-0.3,0.4
		c-0.1,0.1-0.1,0.3-0.1,0.5c0,0.2,0,0.3,0.1,0.4c0.1,0.1,0.1,0.2,0.3,0.3s0.3,0.1,0.5,0.2c0.2,0.1,0.4,0.1,0.7,0.2
		c0.4,0.1,0.8,0.2,1.1,0.3c0.3,0.1,0.6,0.2,0.8,0.3s0.4,0.3,0.5,0.5c0.1,0.2,0.2,0.4,0.2,0.7c0,0.6-0.2,1-0.7,1.4
		C102.5,42,101.9,42.1,101.1,42.1z"/>
	<path class="st0" d="M108.1,42.1c-0.5,0-1-0.1-1.4-0.4c-0.4-0.3-0.7-0.6-1-1v3.9h-0.8v-8.8h0.7V37c0.3-0.4,0.6-0.7,1-1
		c0.4-0.2,0.9-0.4,1.3-0.4c0.4,0,0.8,0.1,1.2,0.3c0.4,0.2,0.7,0.4,0.9,0.7s0.5,0.6,0.6,1c0.1,0.4,0.2,0.8,0.2,1.2
		c0,0.4-0.1,0.9-0.2,1.2c-0.1,0.4-0.3,0.7-0.6,1s-0.6,0.5-0.9,0.7C108.9,42.1,108.5,42.1,108.1,42.1z M107.9,41.4
		c0.3,0,0.6-0.1,0.9-0.2c0.3-0.1,0.5-0.3,0.7-0.6c0.2-0.2,0.3-0.5,0.4-0.8s0.2-0.6,0.2-0.9c0-0.3-0.1-0.7-0.2-1s-0.3-0.6-0.5-0.8
		c-0.2-0.2-0.5-0.4-0.7-0.6c-0.3-0.1-0.6-0.2-0.9-0.2c-0.2,0-0.4,0-0.7,0.1c-0.2,0.1-0.4,0.2-0.6,0.3c-0.2,0.1-0.4,0.3-0.5,0.5
		c-0.1,0.2-0.2,0.4-0.3,0.6v1.9c0.1,0.2,0.2,0.4,0.4,0.6c0.1,0.2,0.3,0.4,0.5,0.5c0.2,0.1,0.4,0.3,0.6,0.3
		C107.4,41.4,107.6,41.4,107.9,41.4z"/>
	<path class="st0" d="M112.3,34.5v-1.2h0.8v1.2H112.3z M112.3,42v-6.3h0.8V42H112.3z"/>
	<path class="st0" d="M118.1,36.5c-0.6,0-1,0.2-1.4,0.5c-0.4,0.3-0.7,0.7-0.9,1.2V42h-0.8v-6.3h0.8v1.5c0.2-0.5,0.5-0.9,0.9-1.1
		c0.4-0.3,0.8-0.4,1.3-0.4c0.1,0,0.1,0,0.2,0V36.5z"/>
	<path class="st0" d="M119.1,34.5v-1.2h0.8v1.2H119.1z M119.1,42v-6.3h0.8V42H119.1z"/>
	<path class="st0" d="M124.8,41.7c0,0-0.1,0.1-0.2,0.1s-0.2,0.1-0.3,0.1S124,42,123.8,42c-0.2,0-0.3,0-0.5,0c-0.2,0-0.3,0-0.5-0.1
		s-0.3-0.1-0.4-0.2c-0.1-0.1-0.2-0.2-0.3-0.4c-0.1-0.2-0.1-0.3-0.1-0.5v-4.5h-0.9v-0.6h0.9v-2.1h0.8v2.1h1.4v0.6h-1.4v4.2
		c0,0.2,0.1,0.4,0.2,0.5c0.1,0.1,0.3,0.2,0.5,0.2c0.2,0,0.4,0,0.6-0.1c0.2-0.1,0.3-0.1,0.3-0.2L124.8,41.7z"/>
	<path class="st0" d="M127.7,42.1c-0.7,0-1.2-0.2-1.5-0.7c-0.3-0.5-0.5-1.1-0.5-2v-3.7h0.8v3.5c0,1.4,0.5,2.1,1.5,2.1
		c0.2,0,0.5,0,0.7-0.1c0.2-0.1,0.4-0.2,0.6-0.3c0.2-0.2,0.4-0.3,0.5-0.5c0.2-0.2,0.3-0.4,0.4-0.7v-3.9h0.8V41c0,0.2,0.1,0.3,0.3,0.3
		V42c-0.1,0-0.2,0-0.2,0s-0.1,0-0.1,0c-0.2,0-0.3-0.1-0.5-0.2c-0.1-0.1-0.2-0.3-0.2-0.5v-0.7c-0.3,0.5-0.6,0.9-1.1,1.1
		C128.8,42,128.3,42.1,127.7,42.1z"/>
	<path class="st0" d="M134.5,42.1c-0.3,0-0.6-0.1-0.8-0.2s-0.5-0.2-0.7-0.4c-0.2-0.2-0.3-0.4-0.4-0.6c-0.1-0.2-0.2-0.5-0.2-0.8
		c0-0.3,0.1-0.5,0.2-0.8s0.3-0.4,0.5-0.6s0.5-0.3,0.8-0.4c0.3-0.1,0.7-0.1,1.1-0.1c0.3,0,0.6,0,1,0.1s0.6,0.1,0.9,0.2v-0.6
		c0-0.6-0.2-1-0.5-1.3c-0.3-0.3-0.7-0.5-1.3-0.5c-0.3,0-0.6,0.1-1,0.2c-0.3,0.1-0.7,0.3-1,0.6l-0.3-0.5c0.8-0.5,1.6-0.8,2.4-0.8
		c0.8,0,1.4,0.2,1.8,0.7c0.4,0.4,0.7,1,0.7,1.8V41c0,0.2,0.1,0.3,0.3,0.3V42c-0.1,0-0.2,0-0.3,0c-0.2,0-0.4-0.1-0.5-0.2
		c-0.1-0.1-0.2-0.2-0.2-0.4l0-0.5c-0.3,0.4-0.6,0.7-1.1,0.9C135.5,42,135,42.1,134.5,42.1z M134.7,41.5c0.4,0,0.8-0.1,1.2-0.2
		s0.6-0.4,0.8-0.6c0.1-0.1,0.1-0.2,0.2-0.2c0-0.1,0.1-0.2,0.1-0.2v-1c-0.3-0.1-0.6-0.2-0.8-0.2c-0.3-0.1-0.6-0.1-0.9-0.1
		c-0.6,0-1,0.1-1.4,0.4c-0.4,0.2-0.5,0.6-0.5,0.9c0,0.2,0,0.4,0.1,0.5c0.1,0.2,0.2,0.3,0.3,0.4s0.3,0.2,0.5,0.3
		C134.3,41.5,134.5,41.5,134.7,41.5z"/>
	<path class="st0" d="M139.5,33.3h0.8v7.3c0,0.2,0.1,0.4,0.2,0.5s0.3,0.2,0.5,0.2c0.1,0,0.2,0,0.3,0c0.1,0,0.2-0.1,0.3-0.1l0.1,0.7
		c-0.2,0.1-0.3,0.1-0.6,0.2c-0.2,0-0.4,0.1-0.6,0.1c-0.4,0-0.7-0.1-0.9-0.3c-0.2-0.2-0.3-0.5-0.3-0.9V33.3z"/>
	<path class="st0" d="M148.6,42.1c-0.5,0-1-0.1-1.4-0.4c-0.4-0.3-0.7-0.6-1-1v3.9h-0.8v-8.8h0.7V37c0.3-0.4,0.6-0.7,1-1
		c0.4-0.2,0.9-0.4,1.3-0.4c0.4,0,0.8,0.1,1.2,0.3c0.4,0.2,0.7,0.4,0.9,0.7s0.5,0.6,0.6,1c0.1,0.4,0.2,0.8,0.2,1.2
		c0,0.4-0.1,0.9-0.2,1.2c-0.1,0.4-0.3,0.7-0.6,1s-0.6,0.5-0.9,0.7C149.4,42.1,149,42.1,148.6,42.1z M148.4,41.4
		c0.3,0,0.6-0.1,0.9-0.2c0.3-0.1,0.5-0.3,0.7-0.6c0.2-0.2,0.3-0.5,0.4-0.8s0.2-0.6,0.2-0.9c0-0.3-0.1-0.7-0.2-1s-0.3-0.6-0.5-0.8
		c-0.2-0.2-0.5-0.4-0.7-0.6c-0.3-0.1-0.6-0.2-0.9-0.2c-0.2,0-0.4,0-0.7,0.1c-0.2,0.1-0.4,0.2-0.6,0.3c-0.2,0.1-0.4,0.3-0.5,0.5
		c-0.1,0.2-0.2,0.4-0.3,0.6v1.9c0.1,0.2,0.2,0.4,0.4,0.6c0.1,0.2,0.3,0.4,0.5,0.5c0.2,0.1,0.4,0.3,0.6,0.3
		C147.9,41.4,148.1,41.4,148.4,41.4z"/>
	<path class="st0" d="M155.9,36.5c-0.6,0-1,0.2-1.4,0.5c-0.4,0.3-0.7,0.7-0.9,1.2V42h-0.8v-6.3h0.8v1.5c0.2-0.5,0.5-0.9,0.9-1.1
		c0.4-0.3,0.8-0.4,1.3-0.4c0.1,0,0.1,0,0.2,0V36.5z"/>
	<path class="st0" d="M158.5,42.1c-0.3,0-0.6-0.1-0.8-0.2s-0.5-0.2-0.7-0.4c-0.2-0.2-0.3-0.4-0.4-0.6c-0.1-0.2-0.2-0.5-0.2-0.8
		c0-0.3,0.1-0.5,0.2-0.8s0.3-0.4,0.5-0.6s0.5-0.3,0.8-0.4c0.3-0.1,0.7-0.1,1.1-0.1c0.3,0,0.6,0,1,0.1s0.6,0.1,0.9,0.2v-0.6
		c0-0.6-0.2-1-0.5-1.3c-0.3-0.3-0.7-0.5-1.3-0.5c-0.3,0-0.6,0.1-1,0.2c-0.3,0.1-0.7,0.3-1,0.6l-0.3-0.5c0.8-0.5,1.6-0.8,2.4-0.8
		c0.8,0,1.4,0.2,1.8,0.7c0.4,0.4,0.7,1,0.7,1.8V41c0,0.2,0.1,0.3,0.3,0.3V42c-0.1,0-0.2,0-0.3,0c-0.2,0-0.4-0.1-0.5-0.2
		c-0.1-0.1-0.2-0.2-0.2-0.4l0-0.5c-0.3,0.4-0.6,0.7-1.1,0.9C159.5,42,159,42.1,158.5,42.1z M158.7,41.5c0.4,0,0.8-0.1,1.2-0.2
		s0.6-0.4,0.8-0.6c0.1-0.1,0.1-0.2,0.2-0.2c0-0.1,0.1-0.2,0.1-0.2v-1c-0.3-0.1-0.6-0.2-0.8-0.2c-0.3-0.1-0.6-0.1-0.9-0.1
		c-0.6,0-1,0.1-1.4,0.4c-0.4,0.2-0.5,0.6-0.5,0.9c0,0.2,0,0.4,0.1,0.5c0.1,0.2,0.2,0.3,0.3,0.4s0.3,0.2,0.5,0.3
		C158.3,41.5,158.5,41.5,158.7,41.5z"/>
	<path class="st0" d="M163,38.9c0-0.4,0.1-0.9,0.2-1.2c0.2-0.4,0.4-0.7,0.6-1s0.6-0.5,1-0.7c0.4-0.2,0.8-0.3,1.3-0.3
		c0.6,0,1.1,0.1,1.5,0.4c0.4,0.3,0.8,0.6,1,1.1l-0.8,0.3c-0.2-0.3-0.4-0.6-0.7-0.8c-0.3-0.2-0.7-0.3-1-0.3c-0.3,0-0.6,0.1-0.9,0.2
		s-0.5,0.3-0.7,0.5c-0.2,0.2-0.4,0.5-0.5,0.8c-0.1,0.3-0.2,0.6-0.2,1c0,0.4,0.1,0.7,0.2,1c0.1,0.3,0.3,0.6,0.5,0.8
		c0.2,0.2,0.5,0.4,0.7,0.5c0.3,0.1,0.6,0.2,0.9,0.2c0.2,0,0.4,0,0.6-0.1c0.2-0.1,0.4-0.1,0.5-0.2c0.2-0.1,0.3-0.2,0.4-0.3
		s0.2-0.3,0.3-0.4l0.8,0.2c-0.1,0.2-0.2,0.4-0.4,0.6c-0.2,0.2-0.4,0.4-0.6,0.5c-0.2,0.1-0.5,0.2-0.8,0.3s-0.6,0.1-0.9,0.1
		c-0.5,0-0.9-0.1-1.3-0.3c-0.4-0.2-0.7-0.4-1-0.7c-0.3-0.3-0.5-0.6-0.7-1C163.1,39.7,163,39.3,163,38.9z"/>
	<path class="st0" d="M173.1,41.7c0,0-0.1,0.1-0.2,0.1s-0.2,0.1-0.3,0.1s-0.3,0.1-0.4,0.1c-0.2,0-0.3,0-0.5,0c-0.2,0-0.3,0-0.5-0.1
		s-0.3-0.1-0.4-0.2c-0.1-0.1-0.2-0.2-0.3-0.4c-0.1-0.2-0.1-0.3-0.1-0.5v-4.5h-0.9v-0.6h0.9v-2.1h0.8v2.1h1.4v0.6h-1.4v4.2
		c0,0.2,0.1,0.4,0.2,0.5c0.1,0.1,0.3,0.2,0.5,0.2c0.2,0,0.4,0,0.6-0.1s0.3-0.1,0.3-0.2L173.1,41.7z"/>
	<path class="st0" d="M174.1,34.5v-1.2h0.8v1.2H174.1z M174.1,42v-6.3h0.8V42H174.1z"/>
	<path class="st0" d="M176.3,38.9c0-0.4,0.1-0.9,0.2-1.2c0.2-0.4,0.4-0.7,0.6-1c0.3-0.3,0.6-0.5,1-0.7c0.4-0.2,0.8-0.3,1.3-0.3
		c0.6,0,1.1,0.1,1.5,0.4c0.4,0.3,0.8,0.6,1,1.1l-0.8,0.3c-0.2-0.3-0.4-0.6-0.7-0.8c-0.3-0.2-0.7-0.3-1-0.3c-0.3,0-0.6,0.1-0.9,0.2
		c-0.3,0.1-0.5,0.3-0.7,0.5c-0.2,0.2-0.4,0.5-0.5,0.8c-0.1,0.3-0.2,0.6-0.2,1c0,0.4,0.1,0.7,0.2,1c0.1,0.3,0.3,0.6,0.5,0.8
		c0.2,0.2,0.5,0.4,0.7,0.5c0.3,0.1,0.6,0.2,0.9,0.2c0.2,0,0.4,0,0.6-0.1c0.2-0.1,0.4-0.1,0.5-0.2c0.2-0.1,0.3-0.2,0.4-0.3
		s0.2-0.3,0.3-0.4l0.8,0.2c-0.1,0.2-0.2,0.4-0.4,0.6c-0.2,0.2-0.4,0.4-0.6,0.5c-0.2,0.1-0.5,0.2-0.8,0.3s-0.6,0.1-0.9,0.1
		c-0.5,0-0.9-0.1-1.3-0.3c-0.4-0.2-0.7-0.4-1-0.7c-0.3-0.3-0.5-0.6-0.7-1C176.3,39.7,176.3,39.3,176.3,38.9z"/>
	<path class="st0" d="M185.9,42.1c-0.5,0-0.9-0.1-1.3-0.3c-0.4-0.2-0.7-0.4-1-0.7c-0.3-0.3-0.5-0.6-0.7-1c-0.2-0.4-0.2-0.8-0.2-1.3
		c0-0.4,0.1-0.9,0.2-1.2c0.2-0.4,0.4-0.7,0.6-1c0.3-0.3,0.6-0.5,1-0.7c0.4-0.2,0.8-0.3,1.2-0.3c0.5,0,0.9,0.1,1.3,0.3
		c0.4,0.2,0.7,0.4,1,0.7c0.3,0.3,0.5,0.6,0.6,1c0.2,0.4,0.2,0.8,0.2,1.2c0,0.1,0,0.1,0,0.2c0,0.1,0,0.1,0,0.1h-5.4
		c0,0.3,0.1,0.6,0.2,0.9c0.1,0.3,0.3,0.5,0.5,0.7s0.4,0.4,0.7,0.5c0.3,0.1,0.6,0.2,0.9,0.2c0.2,0,0.4,0,0.6-0.1
		c0.2-0.1,0.4-0.1,0.6-0.2s0.3-0.2,0.5-0.4c0.1-0.1,0.2-0.3,0.3-0.5l0.7,0.2c-0.1,0.2-0.2,0.4-0.4,0.6c-0.2,0.2-0.4,0.4-0.6,0.5
		c-0.2,0.1-0.5,0.2-0.8,0.3C186.5,42.1,186.2,42.1,185.9,42.1z M188.2,38.6c0-0.3-0.1-0.6-0.2-0.9c-0.1-0.3-0.3-0.5-0.5-0.7
		s-0.4-0.4-0.7-0.5c-0.3-0.1-0.6-0.2-0.9-0.2c-0.3,0-0.6,0.1-0.9,0.2c-0.3,0.1-0.5,0.3-0.7,0.5s-0.4,0.4-0.5,0.7s-0.2,0.6-0.2,0.9
		H188.2z"/>
	<path class="st0" d="M192.3,42.1c-0.5,0-1-0.1-1.4-0.2s-0.9-0.4-1.2-0.7l0.4-0.6c0.4,0.3,0.7,0.5,1.1,0.6c0.4,0.1,0.8,0.2,1.2,0.2
		c0.5,0,0.9-0.1,1.2-0.3c0.3-0.2,0.5-0.5,0.5-0.9c0-0.2,0-0.3-0.1-0.4s-0.2-0.2-0.4-0.3c-0.2-0.1-0.4-0.2-0.6-0.2
		c-0.2-0.1-0.5-0.1-0.8-0.2c-0.4-0.1-0.7-0.2-0.9-0.3c-0.3-0.1-0.5-0.2-0.7-0.3c-0.2-0.1-0.3-0.3-0.4-0.4c-0.1-0.2-0.1-0.4-0.1-0.6
		c0-0.3,0.1-0.6,0.2-0.8s0.3-0.4,0.5-0.6c0.2-0.2,0.5-0.3,0.7-0.4s0.6-0.1,0.9-0.1c0.5,0,0.9,0.1,1.3,0.2c0.4,0.2,0.7,0.4,0.9,0.6
		l-0.4,0.5c-0.2-0.2-0.5-0.4-0.8-0.5s-0.7-0.2-1-0.2c-0.2,0-0.4,0-0.6,0.1c-0.2,0-0.3,0.1-0.5,0.2c-0.1,0.1-0.3,0.2-0.3,0.4
		c-0.1,0.1-0.1,0.3-0.1,0.5c0,0.2,0,0.3,0.1,0.4c0.1,0.1,0.1,0.2,0.3,0.3s0.3,0.1,0.5,0.2c0.2,0.1,0.4,0.1,0.7,0.2
		c0.4,0.1,0.8,0.2,1.1,0.3c0.3,0.1,0.6,0.2,0.8,0.3s0.4,0.3,0.5,0.5c0.1,0.2,0.2,0.4,0.2,0.7c0,0.6-0.2,1-0.7,1.4
		C193.7,42,193.1,42.1,192.3,42.1z"/>
	<path class="st0" d="M200.7,42.1c-0.3,0-0.6-0.1-0.8-0.2s-0.5-0.2-0.7-0.4c-0.2-0.2-0.3-0.4-0.4-0.6c-0.1-0.2-0.2-0.5-0.2-0.8
		c0-0.3,0.1-0.5,0.2-0.8s0.3-0.4,0.5-0.6c0.2-0.2,0.5-0.3,0.8-0.4c0.3-0.1,0.7-0.1,1.1-0.1c0.3,0,0.6,0,1,0.1s0.6,0.1,0.9,0.2v-0.6
		c0-0.6-0.2-1-0.5-1.3c-0.3-0.3-0.7-0.5-1.3-0.5c-0.3,0-0.6,0.1-1,0.2c-0.3,0.1-0.7,0.3-1,0.6l-0.3-0.5c0.8-0.5,1.6-0.8,2.4-0.8
		c0.8,0,1.4,0.2,1.8,0.7c0.4,0.4,0.7,1,0.7,1.8V41c0,0.2,0.1,0.3,0.3,0.3V42c-0.1,0-0.2,0-0.3,0c-0.2,0-0.4-0.1-0.5-0.2
		s-0.2-0.2-0.2-0.4l0-0.5c-0.3,0.4-0.7,0.7-1.1,0.9C201.7,42,201.2,42.1,200.7,42.1z M200.9,41.5c0.4,0,0.8-0.1,1.2-0.2
		c0.4-0.2,0.6-0.4,0.8-0.6c0.1-0.1,0.1-0.2,0.2-0.2s0.1-0.2,0.1-0.2v-1c-0.3-0.1-0.6-0.2-0.8-0.2c-0.3-0.1-0.6-0.1-0.9-0.1
		c-0.6,0-1,0.1-1.4,0.4s-0.5,0.6-0.5,0.9c0,0.2,0,0.4,0.1,0.5c0.1,0.2,0.2,0.3,0.3,0.4s0.3,0.2,0.5,0.3
		C200.5,41.5,200.7,41.5,200.9,41.5z"/>
	<path class="st0" d="M211,42h-0.8v-3.5c0-0.7-0.1-1.3-0.3-1.6s-0.6-0.5-1-0.5c-0.2,0-0.5,0-0.7,0.1c-0.2,0.1-0.5,0.2-0.7,0.4
		s-0.4,0.4-0.5,0.6s-0.3,0.5-0.3,0.7V42h-0.8v-6.3h0.7v1.4c0.3-0.5,0.6-0.8,1.1-1.1c0.5-0.3,1-0.4,1.6-0.4c0.3,0,0.6,0.1,0.9,0.2
		s0.4,0.3,0.6,0.5c0.1,0.2,0.2,0.5,0.3,0.9c0.1,0.3,0.1,0.7,0.1,1.1V42z"/>
	<path class="st0" d="M215.3,42.1c-0.4,0-0.8-0.1-1.2-0.3s-0.7-0.4-0.9-0.7c-0.3-0.3-0.5-0.6-0.6-1c-0.1-0.4-0.2-0.8-0.2-1.2
		c0-0.4,0.1-0.9,0.2-1.3c0.1-0.4,0.3-0.7,0.6-1s0.6-0.5,0.9-0.7c0.3-0.2,0.7-0.3,1.1-0.3c0.5,0,1,0.1,1.4,0.4c0.4,0.3,0.7,0.6,1,1
		v-3.8h0.8V41c0,0.2,0.1,0.3,0.3,0.3V42c-0.1,0-0.2,0-0.3,0c-0.2,0-0.4-0.1-0.5-0.2s-0.2-0.3-0.2-0.5v-0.6c-0.2,0.4-0.6,0.7-1,1
		C216.2,42,215.7,42.1,215.3,42.1z M215.5,41.4c0.2,0,0.4,0,0.6-0.1c0.2-0.1,0.4-0.2,0.6-0.3c0.2-0.1,0.4-0.3,0.5-0.5
		c0.1-0.2,0.2-0.4,0.3-0.6v-1.9c-0.1-0.2-0.2-0.4-0.3-0.6c-0.2-0.2-0.3-0.4-0.5-0.5c-0.2-0.1-0.4-0.3-0.6-0.3
		c-0.2-0.1-0.4-0.1-0.7-0.1c-0.3,0-0.6,0.1-0.9,0.2c-0.3,0.1-0.5,0.3-0.7,0.6c-0.2,0.2-0.3,0.5-0.5,0.8c-0.1,0.3-0.2,0.6-0.2,0.9
		c0,0.3,0.1,0.7,0.2,1c0.1,0.3,0.3,0.6,0.5,0.8c0.2,0.2,0.5,0.4,0.7,0.5C214.8,41.4,215.1,41.4,215.5,41.4z"/>
	<path class="st0" d="M222.8,38.9c0-0.4,0.1-0.9,0.2-1.2c0.2-0.4,0.4-0.7,0.6-1c0.3-0.3,0.6-0.5,1-0.7s0.8-0.3,1.3-0.3
		c0.6,0,1.1,0.1,1.5,0.4c0.4,0.3,0.8,0.6,1,1.1l-0.8,0.3c-0.2-0.3-0.4-0.6-0.7-0.8s-0.7-0.3-1-0.3c-0.3,0-0.6,0.1-0.9,0.2
		c-0.3,0.1-0.5,0.3-0.7,0.5c-0.2,0.2-0.4,0.5-0.5,0.8c-0.1,0.3-0.2,0.6-0.2,1c0,0.4,0.1,0.7,0.2,1c0.1,0.3,0.3,0.6,0.5,0.8
		c0.2,0.2,0.5,0.4,0.7,0.5c0.3,0.1,0.6,0.2,0.9,0.2c0.2,0,0.4,0,0.6-0.1c0.2-0.1,0.4-0.1,0.5-0.2c0.2-0.1,0.3-0.2,0.4-0.3
		s0.2-0.3,0.3-0.4l0.8,0.2c-0.1,0.2-0.2,0.4-0.4,0.6c-0.2,0.2-0.4,0.4-0.6,0.5c-0.2,0.1-0.5,0.2-0.8,0.3c-0.3,0.1-0.6,0.1-0.9,0.1
		c-0.5,0-0.9-0.1-1.3-0.3c-0.4-0.2-0.7-0.4-1-0.7c-0.3-0.3-0.5-0.6-0.7-1C222.9,39.7,222.8,39.3,222.8,38.9z"/>
	<path class="st0" d="M231.8,42.1c-0.7,0-1.2-0.2-1.5-0.7c-0.3-0.5-0.5-1.1-0.5-2v-3.7h0.8v3.5c0,1.4,0.5,2.1,1.5,2.1
		c0.2,0,0.5,0,0.7-0.1c0.2-0.1,0.4-0.2,0.6-0.3c0.2-0.2,0.4-0.3,0.5-0.5s0.3-0.4,0.4-0.7v-3.9h0.8V41c0,0.2,0.1,0.3,0.3,0.3V42
		c-0.1,0-0.2,0-0.2,0c-0.1,0-0.1,0-0.1,0c-0.2,0-0.3-0.1-0.5-0.2c-0.1-0.1-0.2-0.3-0.2-0.5v-0.7c-0.3,0.5-0.6,0.9-1.1,1.1
		C232.8,42,232.3,42.1,231.8,42.1z"/>
	<path class="st0" d="M237,33.3h0.8v7.3c0,0.2,0.1,0.4,0.2,0.5s0.3,0.2,0.5,0.2c0.1,0,0.2,0,0.3,0c0.1,0,0.2-0.1,0.3-0.1l0.1,0.7
		c-0.2,0.1-0.3,0.1-0.6,0.2c-0.2,0-0.4,0.1-0.6,0.1c-0.4,0-0.7-0.1-0.9-0.3c-0.2-0.2-0.3-0.5-0.3-0.9V33.3z"/>
	<path class="st0" d="M243.2,41.7c0,0-0.1,0.1-0.2,0.1s-0.2,0.1-0.3,0.1s-0.3,0.1-0.4,0.1c-0.2,0-0.3,0-0.5,0c-0.2,0-0.3,0-0.5-0.1
		s-0.3-0.1-0.4-0.2c-0.1-0.1-0.2-0.2-0.3-0.4c-0.1-0.2-0.1-0.3-0.1-0.5v-4.5h-0.9v-0.6h0.9v-2.1h0.8v2.1h1.4v0.6h-1.4v4.2
		c0,0.2,0.1,0.4,0.2,0.5c0.1,0.1,0.3,0.2,0.5,0.2c0.2,0,0.4,0,0.6-0.1c0.2-0.1,0.3-0.1,0.3-0.2L243.2,41.7z"/>
	<path class="st0" d="M246.2,42.1c-0.7,0-1.2-0.2-1.5-0.7c-0.3-0.5-0.5-1.1-0.5-2v-3.7h0.8v3.5c0,1.4,0.5,2.1,1.5,2.1
		c0.2,0,0.5,0,0.7-0.1c0.2-0.1,0.4-0.2,0.6-0.3c0.2-0.2,0.4-0.3,0.5-0.5c0.2-0.2,0.3-0.4,0.4-0.7v-3.9h0.8V41c0,0.2,0.1,0.3,0.3,0.3
		V42c-0.1,0-0.2,0-0.2,0c-0.1,0-0.1,0-0.1,0c-0.2,0-0.3-0.1-0.5-0.2c-0.1-0.1-0.2-0.3-0.2-0.5v-0.7c-0.3,0.5-0.6,0.9-1.1,1.1
		C247.2,42,246.7,42.1,246.2,42.1z"/>
	<path class="st0" d="M254.5,36.5c-0.6,0-1,0.2-1.4,0.5c-0.4,0.3-0.7,0.7-0.9,1.2V42h-0.8v-6.3h0.8v1.5c0.2-0.5,0.5-0.9,0.9-1.1
		c0.4-0.3,0.8-0.4,1.3-0.4c0.1,0,0.1,0,0.2,0V36.5z"/>
	<path class="st0" d="M258,42.1c-0.5,0-0.9-0.1-1.3-0.3c-0.4-0.2-0.7-0.4-1-0.7c-0.3-0.3-0.5-0.6-0.7-1c-0.2-0.4-0.2-0.8-0.2-1.3
		c0-0.4,0.1-0.9,0.2-1.2c0.2-0.4,0.4-0.7,0.6-1c0.3-0.3,0.6-0.5,1-0.7c0.4-0.2,0.8-0.3,1.2-0.3c0.5,0,0.9,0.1,1.3,0.3
		c0.4,0.2,0.7,0.4,1,0.7c0.3,0.3,0.5,0.6,0.6,1c0.2,0.4,0.2,0.8,0.2,1.2c0,0.1,0,0.1,0,0.2c0,0.1,0,0.1,0,0.1h-5.4
		c0,0.3,0.1,0.6,0.2,0.9s0.3,0.5,0.5,0.7s0.4,0.4,0.7,0.5c0.3,0.1,0.6,0.2,0.9,0.2c0.2,0,0.4,0,0.6-0.1c0.2-0.1,0.4-0.1,0.6-0.2
		s0.3-0.2,0.5-0.4c0.1-0.1,0.2-0.3,0.3-0.5l0.7,0.2c-0.1,0.2-0.2,0.4-0.4,0.6c-0.2,0.2-0.4,0.4-0.6,0.5c-0.2,0.1-0.5,0.2-0.8,0.3
		S258.3,42.1,258,42.1z M260.3,38.6c0-0.3-0.1-0.6-0.2-0.9c-0.1-0.3-0.3-0.5-0.5-0.7s-0.4-0.4-0.7-0.5c-0.3-0.1-0.6-0.2-0.9-0.2
		s-0.6,0.1-0.9,0.2c-0.3,0.1-0.5,0.3-0.7,0.5s-0.4,0.4-0.5,0.7s-0.2,0.6-0.2,0.9H260.3z"/>
	<path class="st0" d="M268,42.1c-0.5,0-0.9-0.1-1.2-0.3c-0.4-0.2-0.7-0.4-1-0.7c-0.3-0.3-0.5-0.6-0.6-1c-0.2-0.4-0.2-0.8-0.2-1.2
		c0-0.4,0.1-0.9,0.2-1.2c0.2-0.4,0.4-0.7,0.6-1c0.3-0.3,0.6-0.5,1-0.7c0.4-0.2,0.8-0.3,1.2-0.3c0.4,0,0.9,0.1,1.2,0.3
		c0.4,0.2,0.7,0.4,1,0.7c0.3,0.3,0.5,0.6,0.6,1c0.2,0.4,0.2,0.8,0.2,1.2c0,0.4-0.1,0.8-0.2,1.2c-0.2,0.4-0.4,0.7-0.6,1
		c-0.3,0.3-0.6,0.5-1,0.7C268.9,42.1,268.5,42.1,268,42.1z M265.8,38.9c0,0.4,0.1,0.7,0.2,1s0.3,0.6,0.5,0.8
		c0.2,0.2,0.4,0.4,0.7,0.5c0.3,0.1,0.6,0.2,0.9,0.2c0.3,0,0.6-0.1,0.9-0.2c0.3-0.1,0.5-0.3,0.7-0.5c0.2-0.2,0.4-0.5,0.5-0.8
		c0.1-0.3,0.2-0.6,0.2-1c0-0.3-0.1-0.7-0.2-1c-0.1-0.3-0.3-0.6-0.5-0.8c-0.2-0.2-0.4-0.4-0.7-0.5s-0.6-0.2-0.9-0.2
		c-0.3,0-0.6,0.1-0.9,0.2c-0.3,0.1-0.5,0.3-0.7,0.5c-0.2,0.2-0.4,0.5-0.5,0.8C265.8,38.2,265.8,38.6,265.8,38.9z"/>
	<path class="st0" d="M272.7,42v-5.6h-0.9v-0.6h0.9v-0.2c0-0.8,0.2-1.4,0.5-1.8c0.3-0.4,0.8-0.7,1.3-0.7c0.2,0,0.5,0,0.7,0.1
		c0.2,0.1,0.4,0.2,0.6,0.3l-0.3,0.6c-0.1-0.1-0.3-0.2-0.4-0.2c-0.2,0-0.3-0.1-0.5-0.1c-0.4,0-0.7,0.1-0.9,0.4s-0.3,0.7-0.3,1.3v0.2
		h1.7v0.6h-1.7V42H272.7z"/>
	<path class="st0" d="M282.2,41.7c0,0-0.1,0.1-0.2,0.1c-0.1,0-0.2,0.1-0.3,0.1s-0.3,0.1-0.4,0.1c-0.2,0-0.3,0-0.5,0
		c-0.2,0-0.3,0-0.5-0.1s-0.3-0.1-0.4-0.2c-0.1-0.1-0.2-0.2-0.3-0.4c-0.1-0.2-0.1-0.3-0.1-0.5v-4.5h-0.9v-0.6h0.9v-2.1h0.8v2.1h1.4
		v0.6h-1.4v4.2c0,0.2,0.1,0.4,0.2,0.5c0.1,0.1,0.3,0.2,0.5,0.2c0.2,0,0.4,0,0.6-0.1s0.3-0.1,0.3-0.2L282.2,41.7z"/>
	<path class="st0" d="M288.5,42h-0.8v-3.5c0-0.7-0.1-1.2-0.4-1.6c-0.2-0.4-0.6-0.5-1.1-0.5c-0.2,0-0.5,0-0.7,0.1
		c-0.2,0.1-0.4,0.2-0.6,0.4c-0.2,0.2-0.4,0.3-0.5,0.6s-0.3,0.5-0.3,0.7V42h-0.8v-8.8h0.8v3.9c0.2-0.5,0.6-0.8,1-1.1
		c0.4-0.3,0.9-0.4,1.4-0.4c0.4,0,0.7,0.1,0.9,0.2s0.5,0.3,0.6,0.6c0.2,0.2,0.3,0.5,0.3,0.9s0.1,0.7,0.1,1.1V42z"/>
	<path class="st0" d="M292.9,42.1c-0.5,0-0.9-0.1-1.3-0.3c-0.4-0.2-0.7-0.4-1-0.7c-0.3-0.3-0.5-0.6-0.7-1c-0.2-0.4-0.2-0.8-0.2-1.3
		c0-0.4,0.1-0.9,0.2-1.2c0.2-0.4,0.4-0.7,0.6-1c0.3-0.3,0.6-0.5,1-0.7c0.4-0.2,0.8-0.3,1.2-0.3c0.5,0,0.9,0.1,1.3,0.3
		c0.4,0.2,0.7,0.4,1,0.7c0.3,0.3,0.5,0.6,0.6,1c0.2,0.4,0.2,0.8,0.2,1.2c0,0.1,0,0.1,0,0.2c0,0.1,0,0.1,0,0.1h-5.4
		c0,0.3,0.1,0.6,0.2,0.9s0.3,0.5,0.5,0.7c0.2,0.2,0.4,0.4,0.7,0.5c0.3,0.1,0.6,0.2,0.9,0.2c0.2,0,0.4,0,0.6-0.1
		c0.2-0.1,0.4-0.1,0.6-0.2s0.3-0.2,0.5-0.4c0.1-0.1,0.2-0.3,0.3-0.5l0.7,0.2c-0.1,0.2-0.2,0.4-0.4,0.6c-0.2,0.2-0.4,0.4-0.6,0.5
		c-0.2,0.1-0.5,0.2-0.8,0.3C293.5,42.1,293.2,42.1,292.9,42.1z M295.2,38.6c0-0.3-0.1-0.6-0.2-0.9c-0.1-0.3-0.3-0.5-0.5-0.7
		s-0.4-0.4-0.7-0.5c-0.3-0.1-0.6-0.2-0.9-0.2c-0.3,0-0.6,0.1-0.9,0.2c-0.3,0.1-0.5,0.3-0.7,0.5c-0.2,0.2-0.4,0.4-0.5,0.7
		s-0.2,0.6-0.2,0.9H295.2z"/>
	<path class="st0" d="M301.3,35.1v7h-0.8v-8.5h0.6l5.6,7.1v-7.1h0.8V42h-0.7L301.3,35.1z"/>
	<path class="st0" d="M309.6,34.5v-1.2h0.8v1.2H309.6z M309.6,42v-6.3h0.8V42H309.6z"/>
	<path class="st0" d="M317.4,42h-0.8v-3.5c0-0.7-0.1-1.3-0.3-1.6s-0.6-0.5-1-0.5c-0.2,0-0.5,0-0.7,0.1c-0.2,0.1-0.5,0.2-0.7,0.4
		s-0.4,0.4-0.5,0.6c-0.2,0.2-0.3,0.5-0.3,0.7V42h-0.8v-6.3h0.7v1.4c0.3-0.5,0.6-0.8,1.1-1.1c0.5-0.3,1-0.4,1.6-0.4
		c0.3,0,0.6,0.1,0.9,0.2s0.4,0.3,0.6,0.5c0.1,0.2,0.2,0.5,0.3,0.9c0.1,0.3,0.1,0.7,0.1,1.1V42z"/>
	<path class="st0" d="M318.2,44.2c-0.3,0-0.5,0-0.7-0.1c-0.2-0.1-0.4-0.2-0.6-0.4l0.4-0.6c0.1,0.1,0.3,0.2,0.4,0.2s0.3,0.1,0.5,0.1
		c0.1,0,0.3,0,0.4-0.1c0.1-0.1,0.3-0.1,0.4-0.2c0.1-0.1,0.2-0.2,0.3-0.4c0.1-0.1,0.1-0.3,0.1-0.4v-6.6h0.8v6.5
		c0,0.3-0.1,0.5-0.2,0.8c-0.1,0.2-0.2,0.4-0.4,0.6c-0.2,0.2-0.4,0.3-0.6,0.4C318.7,44.1,318.5,44.2,318.2,44.2z M319.3,34.5v-1.2
		h0.8v1.2H319.3z"/>
	<path class="st0" d="M323.4,42.1c-0.3,0-0.6-0.1-0.8-0.2s-0.5-0.2-0.7-0.4c-0.2-0.2-0.3-0.4-0.4-0.6c-0.1-0.2-0.2-0.5-0.2-0.8
		c0-0.3,0.1-0.5,0.2-0.8s0.3-0.4,0.5-0.6s0.5-0.3,0.8-0.4c0.3-0.1,0.7-0.1,1.1-0.1c0.3,0,0.6,0,1,0.1c0.3,0.1,0.6,0.1,0.9,0.2v-0.6
		c0-0.6-0.2-1-0.5-1.3c-0.3-0.3-0.7-0.5-1.3-0.5c-0.3,0-0.6,0.1-1,0.2c-0.3,0.1-0.7,0.3-1,0.6l-0.3-0.5c0.8-0.5,1.6-0.8,2.4-0.8
		c0.8,0,1.4,0.2,1.8,0.7c0.4,0.4,0.7,1,0.7,1.8V41c0,0.2,0.1,0.3,0.3,0.3V42c-0.1,0-0.2,0-0.3,0c-0.2,0-0.4-0.1-0.5-0.2
		s-0.2-0.2-0.2-0.4l0-0.5c-0.3,0.4-0.6,0.7-1.1,0.9C324.4,42,323.9,42.1,323.4,42.1z M323.6,41.5c0.4,0,0.8-0.1,1.2-0.2
		c0.4-0.2,0.6-0.4,0.8-0.6c0.1-0.1,0.1-0.2,0.2-0.2s0.1-0.2,0.1-0.2v-1c-0.3-0.1-0.6-0.2-0.8-0.2c-0.3-0.1-0.6-0.1-0.9-0.1
		c-0.6,0-1,0.1-1.4,0.4c-0.4,0.2-0.5,0.6-0.5,0.9c0,0.2,0,0.4,0.1,0.5c0.1,0.2,0.2,0.3,0.3,0.4c0.1,0.1,0.3,0.2,0.5,0.3
		C323.2,41.5,323.4,41.5,323.6,41.5z"/>
	<path class="st0" d="M328.3,42v-1.2h0.7V42H328.3z"/>
	<path class="st0" d="M91.8,56.4v-8.5h2.9c0.7,0,1.3,0.1,1.8,0.3c0.5,0.2,0.9,0.5,1.3,0.9c0.3,0.4,0.6,0.8,0.8,1.3
		c0.2,0.5,0.3,1.1,0.3,1.7c0,0.6-0.1,1.2-0.3,1.8s-0.5,1-0.8,1.3c-0.4,0.4-0.8,0.7-1.3,0.9s-1.1,0.3-1.7,0.3H91.8z M97.9,52.1
		c0-0.5-0.1-1-0.2-1.4s-0.4-0.8-0.6-1.1c-0.3-0.3-0.6-0.6-1-0.7s-0.9-0.3-1.4-0.3h-2.1v7h2.1c0.5,0,1-0.1,1.4-0.3s0.7-0.4,1-0.7
		c0.3-0.3,0.5-0.7,0.6-1.1C97.9,53.1,97.9,52.7,97.9,52.1z"/>
	<path class="st0" d="M102.9,56.5c-0.5,0-0.9-0.1-1.3-0.3c-0.4-0.2-0.7-0.4-1-0.7c-0.3-0.3-0.5-0.6-0.7-1c-0.2-0.4-0.2-0.8-0.2-1.3
		c0-0.4,0.1-0.9,0.2-1.2c0.2-0.4,0.4-0.7,0.6-1s0.6-0.5,1-0.7c0.4-0.2,0.8-0.3,1.2-0.3c0.5,0,0.9,0.1,1.3,0.3s0.7,0.4,1,0.7
		s0.5,0.6,0.6,1c0.2,0.4,0.2,0.8,0.2,1.2c0,0.1,0,0.1,0,0.2c0,0.1,0,0.1,0,0.1h-5.4c0,0.3,0.1,0.6,0.2,0.9c0.1,0.3,0.3,0.5,0.5,0.7
		s0.4,0.4,0.7,0.5s0.6,0.2,0.9,0.2c0.2,0,0.4,0,0.6-0.1c0.2-0.1,0.4-0.1,0.6-0.2c0.2-0.1,0.3-0.2,0.5-0.4c0.1-0.1,0.2-0.3,0.3-0.5
		l0.7,0.2c-0.1,0.2-0.2,0.4-0.4,0.6c-0.2,0.2-0.4,0.4-0.6,0.5c-0.2,0.1-0.5,0.2-0.8,0.3C103.5,56.5,103.2,56.5,102.9,56.5z
		 M105.2,53c0-0.3-0.1-0.6-0.2-0.9c-0.1-0.3-0.3-0.5-0.5-0.7s-0.4-0.4-0.7-0.5s-0.6-0.2-0.9-0.2c-0.3,0-0.6,0.1-0.9,0.2
		s-0.5,0.3-0.7,0.5s-0.4,0.4-0.5,0.7c-0.1,0.3-0.2,0.6-0.2,0.9H105.2z"/>
	<path class="st0" d="M109.3,56.5c-0.5,0-1-0.1-1.4-0.2c-0.5-0.2-0.9-0.4-1.2-0.7l0.4-0.6c0.4,0.3,0.7,0.5,1.1,0.6
		c0.4,0.1,0.8,0.2,1.2,0.2c0.5,0,0.9-0.1,1.2-0.3c0.3-0.2,0.5-0.5,0.5-0.9c0-0.2,0-0.3-0.1-0.4c-0.1-0.1-0.2-0.2-0.4-0.3
		s-0.4-0.2-0.6-0.2c-0.2-0.1-0.5-0.1-0.8-0.2c-0.4-0.1-0.7-0.2-0.9-0.3c-0.3-0.1-0.5-0.2-0.7-0.3c-0.2-0.1-0.3-0.3-0.4-0.4
		S107,52.2,107,52c0-0.3,0.1-0.6,0.2-0.8s0.3-0.4,0.5-0.6c0.2-0.2,0.5-0.3,0.7-0.4c0.3-0.1,0.6-0.1,0.9-0.1c0.5,0,0.9,0.1,1.3,0.2
		c0.4,0.2,0.7,0.4,0.9,0.6l-0.4,0.5c-0.2-0.2-0.5-0.4-0.8-0.5c-0.3-0.1-0.7-0.2-1-0.2c-0.2,0-0.4,0-0.6,0.1s-0.3,0.1-0.5,0.2
		c-0.1,0.1-0.3,0.2-0.3,0.4c-0.1,0.1-0.1,0.3-0.1,0.5c0,0.2,0,0.3,0.1,0.4c0.1,0.1,0.1,0.2,0.3,0.3c0.1,0.1,0.3,0.1,0.5,0.2
		c0.2,0.1,0.4,0.1,0.7,0.2c0.4,0.1,0.8,0.2,1.1,0.3c0.3,0.1,0.6,0.2,0.8,0.3s0.4,0.3,0.5,0.5c0.1,0.2,0.2,0.4,0.2,0.7
		c0,0.6-0.2,1-0.7,1.4S110.1,56.5,109.3,56.5z"/>
	<path class="st0" d="M113.1,48.9v-1.2h0.8v1.2H113.1z M113.1,56.4v-6.3h0.8v6.3H113.1z"/>
	<path class="st0" d="M118.2,56.5c-0.4,0-0.8-0.1-1.2-0.3c-0.4-0.2-0.7-0.4-0.9-0.7c-0.3-0.3-0.5-0.6-0.6-1s-0.2-0.8-0.2-1.2
		c0-0.4,0.1-0.8,0.2-1.2c0.1-0.4,0.3-0.7,0.6-1c0.3-0.3,0.6-0.5,0.9-0.7c0.4-0.2,0.8-0.3,1.2-0.3c0.5,0,1,0.1,1.4,0.4
		c0.4,0.3,0.7,0.6,1,1v-1.3h0.7v6.3c0,0.4-0.1,0.8-0.2,1.1s-0.4,0.6-0.7,0.8c-0.3,0.2-0.6,0.4-1,0.5c-0.4,0.1-0.8,0.2-1.2,0.2
		c-0.7,0-1.3-0.1-1.7-0.4s-0.8-0.6-1.1-1l0.5-0.4c0.2,0.4,0.6,0.7,1,0.9c0.4,0.2,0.8,0.3,1.3,0.3c0.3,0,0.6,0,0.9-0.1
		s0.5-0.2,0.7-0.4c0.2-0.2,0.4-0.4,0.5-0.6s0.2-0.5,0.2-0.9v-1.2c-0.2,0.4-0.6,0.7-1,0.9S118.7,56.5,118.2,56.5z M118.5,55.8
		c0.2,0,0.5,0,0.7-0.1c0.2-0.1,0.4-0.2,0.6-0.4c0.2-0.1,0.3-0.3,0.5-0.5c0.1-0.2,0.2-0.4,0.3-0.6v-1.9c-0.1-0.2-0.2-0.4-0.4-0.6
		c-0.2-0.2-0.3-0.4-0.5-0.5c-0.2-0.1-0.4-0.2-0.6-0.3c-0.2-0.1-0.4-0.1-0.7-0.1c-0.4,0-0.7,0.1-0.9,0.2c-0.3,0.1-0.5,0.3-0.7,0.6
		s-0.3,0.5-0.4,0.8s-0.1,0.6-0.1,0.9c0,0.3,0.1,0.7,0.2,1c0.1,0.3,0.3,0.6,0.5,0.8c0.2,0.2,0.5,0.4,0.7,0.5
		C117.8,55.8,118.1,55.8,118.5,55.8z"/>
	<path class="st0" d="M128.4,56.4h-0.8v-3.5c0-0.7-0.1-1.3-0.3-1.6c-0.2-0.3-0.6-0.5-1-0.5c-0.2,0-0.5,0-0.7,0.1
		c-0.2,0.1-0.5,0.2-0.7,0.4s-0.4,0.3-0.5,0.6c-0.2,0.2-0.3,0.5-0.3,0.7v3.8h-0.8v-6.3h0.7v1.4c0.3-0.5,0.6-0.8,1.1-1.1
		c0.5-0.3,1-0.4,1.6-0.4c0.3,0,0.6,0.1,0.9,0.2c0.2,0.1,0.4,0.3,0.6,0.5c0.1,0.2,0.2,0.5,0.3,0.9s0.1,0.7,0.1,1.1V56.4z"/>
	<path class="st0" d="M130.1,48.9v-1.2h0.8v1.2H130.1z M130.1,56.4v-6.3h0.8v6.3H130.1z"/>
	<path class="st0" d="M138,56.4h-0.8v-3.5c0-0.7-0.1-1.3-0.3-1.6c-0.2-0.3-0.6-0.5-1-0.5c-0.2,0-0.5,0-0.7,0.1
		c-0.2,0.1-0.5,0.2-0.7,0.4s-0.4,0.3-0.5,0.6c-0.2,0.2-0.3,0.5-0.3,0.7v3.8h-0.8v-6.3h0.7v1.4c0.3-0.5,0.6-0.8,1.1-1.1
		c0.5-0.3,1-0.4,1.6-0.4c0.3,0,0.6,0.1,0.9,0.2c0.2,0.1,0.4,0.3,0.6,0.5c0.1,0.2,0.2,0.5,0.3,0.9s0.1,0.7,0.1,1.1V56.4z"/>
	<path class="st0" d="M142.3,56.5c-0.4,0-0.8-0.1-1.2-0.3c-0.4-0.2-0.7-0.4-0.9-0.7c-0.3-0.3-0.5-0.6-0.6-1s-0.2-0.8-0.2-1.2
		c0-0.4,0.1-0.8,0.2-1.2c0.1-0.4,0.3-0.7,0.6-1c0.3-0.3,0.6-0.5,0.9-0.7c0.4-0.2,0.8-0.3,1.2-0.3c0.5,0,1,0.1,1.4,0.4
		c0.4,0.3,0.7,0.6,1,1v-1.3h0.7v6.3c0,0.4-0.1,0.8-0.2,1.1s-0.4,0.6-0.7,0.8c-0.3,0.2-0.6,0.4-1,0.5c-0.4,0.1-0.8,0.2-1.2,0.2
		c-0.7,0-1.3-0.1-1.7-0.4s-0.8-0.6-1.1-1l0.5-0.4c0.2,0.4,0.6,0.7,1,0.9c0.4,0.2,0.8,0.3,1.3,0.3c0.3,0,0.6,0,0.9-0.1
		s0.5-0.2,0.7-0.4c0.2-0.2,0.4-0.4,0.5-0.6s0.2-0.5,0.2-0.9v-1.2c-0.2,0.4-0.6,0.7-1,0.9S142.7,56.5,142.3,56.5z M142.5,55.8
		c0.2,0,0.5,0,0.7-0.1c0.2-0.1,0.4-0.2,0.6-0.4c0.2-0.1,0.3-0.3,0.5-0.5c0.1-0.2,0.2-0.4,0.3-0.6v-1.9c-0.1-0.2-0.2-0.4-0.4-0.6
		c-0.2-0.2-0.3-0.4-0.5-0.5c-0.2-0.1-0.4-0.2-0.6-0.3c-0.2-0.1-0.4-0.1-0.7-0.1c-0.4,0-0.7,0.1-0.9,0.2c-0.3,0.1-0.5,0.3-0.7,0.6
		s-0.3,0.5-0.4,0.8s-0.1,0.6-0.1,0.9c0,0.3,0.1,0.7,0.2,1c0.1,0.3,0.3,0.6,0.5,0.8c0.2,0.2,0.5,0.4,0.7,0.5
		C141.9,55.8,142.2,55.8,142.5,55.8z"/>
	<path class="st0" d="M147.3,57.4l0.2-1h-0.3v-1.1h0.8v1.1l-0.3,1H147.3z"/>
	<path class="st0" d="M155,56.5c-0.5,0-1-0.1-1.4-0.2c-0.5-0.2-0.9-0.4-1.2-0.7l0.4-0.6c0.4,0.3,0.7,0.5,1.1,0.6
		c0.4,0.1,0.8,0.2,1.2,0.2c0.5,0,0.9-0.1,1.2-0.3c0.3-0.2,0.5-0.5,0.5-0.9c0-0.2,0-0.3-0.1-0.4c-0.1-0.1-0.2-0.2-0.4-0.3
		s-0.4-0.2-0.6-0.2c-0.2-0.1-0.5-0.1-0.8-0.2c-0.4-0.1-0.7-0.2-0.9-0.3c-0.3-0.1-0.5-0.2-0.7-0.3c-0.2-0.1-0.3-0.3-0.4-0.4
		s-0.1-0.4-0.1-0.6c0-0.3,0.1-0.6,0.2-0.8s0.3-0.4,0.5-0.6c0.2-0.2,0.5-0.3,0.7-0.4c0.3-0.1,0.6-0.1,0.9-0.1c0.5,0,0.9,0.1,1.3,0.2
		c0.4,0.2,0.7,0.4,0.9,0.6l-0.4,0.5c-0.2-0.2-0.5-0.4-0.8-0.5c-0.3-0.1-0.7-0.2-1-0.2c-0.2,0-0.4,0-0.6,0.1s-0.3,0.1-0.5,0.2
		c-0.1,0.1-0.3,0.2-0.3,0.4c-0.1,0.1-0.1,0.3-0.1,0.5c0,0.2,0,0.3,0.1,0.4c0.1,0.1,0.1,0.2,0.3,0.3c0.1,0.1,0.3,0.1,0.5,0.2
		c0.2,0.1,0.4,0.1,0.7,0.2c0.4,0.1,0.8,0.2,1.1,0.3c0.3,0.1,0.6,0.2,0.8,0.3s0.4,0.3,0.5,0.5c0.1,0.2,0.2,0.4,0.2,0.7
		c0,0.6-0.2,1-0.7,1.4S155.7,56.5,155,56.5z"/>
	<path class="st0" d="M161.8,56.1c0,0-0.1,0.1-0.2,0.1s-0.2,0.1-0.3,0.1s-0.3,0.1-0.4,0.1c-0.2,0-0.3,0-0.5,0c-0.2,0-0.3,0-0.5-0.1
		s-0.3-0.1-0.4-0.2s-0.2-0.2-0.3-0.4c-0.1-0.2-0.1-0.3-0.1-0.5v-4.5h-0.9v-0.6h0.9v-2.1h0.8v2.1h1.4v0.6h-1.4v4.2
		c0,0.2,0.1,0.4,0.2,0.5c0.1,0.1,0.3,0.2,0.5,0.2c0.2,0,0.4,0,0.6-0.1c0.2-0.1,0.3-0.1,0.3-0.2L161.8,56.1z"/>
	<path class="st0" d="M162.8,48.9v-1.2h0.8v1.2H162.8z M162.8,56.4v-6.3h0.8v6.3H162.8z"/>
	<path class="st0" d="M168.4,56.1c0,0-0.1,0.1-0.2,0.1s-0.2,0.1-0.3,0.1s-0.3,0.1-0.4,0.1c-0.2,0-0.3,0-0.5,0c-0.2,0-0.3,0-0.5-0.1
		s-0.3-0.1-0.4-0.2s-0.2-0.2-0.3-0.4c-0.1-0.2-0.1-0.3-0.1-0.5v-4.5h-0.9v-0.6h0.9v-2.1h0.8v2.1h1.4v0.6h-1.4v4.2
		c0,0.2,0.1,0.4,0.2,0.5c0.1,0.1,0.3,0.2,0.5,0.2c0.2,0,0.4,0,0.6-0.1c0.2-0.1,0.3-0.1,0.3-0.2L168.4,56.1z"/>
	<path class="st0" d="M168.8,53.3c0-0.4,0.1-0.9,0.2-1.2c0.2-0.4,0.4-0.7,0.6-1c0.3-0.3,0.6-0.5,1-0.7s0.8-0.3,1.3-0.3
		c0.6,0,1.1,0.1,1.5,0.4c0.4,0.3,0.8,0.6,1,1.1l-0.8,0.3c-0.2-0.3-0.4-0.6-0.7-0.8c-0.3-0.2-0.7-0.3-1-0.3c-0.3,0-0.6,0.1-0.9,0.2
		c-0.3,0.1-0.5,0.3-0.7,0.5s-0.4,0.5-0.5,0.8c-0.1,0.3-0.2,0.6-0.2,1c0,0.4,0.1,0.7,0.2,1c0.1,0.3,0.3,0.6,0.5,0.8
		c0.2,0.2,0.5,0.4,0.7,0.5s0.6,0.2,0.9,0.2c0.2,0,0.4,0,0.6-0.1s0.4-0.1,0.5-0.2c0.2-0.1,0.3-0.2,0.4-0.3s0.2-0.3,0.3-0.4l0.8,0.2
		c-0.1,0.2-0.2,0.4-0.4,0.6c-0.2,0.2-0.4,0.4-0.6,0.5c-0.2,0.1-0.5,0.2-0.8,0.3c-0.3,0.1-0.6,0.1-0.9,0.1c-0.5,0-0.9-0.1-1.3-0.3
		c-0.4-0.2-0.7-0.4-1-0.7c-0.3-0.3-0.5-0.6-0.7-1C168.9,54.1,168.8,53.7,168.8,53.3z"/>
	<path class="st0" d="M181.1,56.4h-0.8v-3.5c0-0.7-0.1-1.2-0.4-1.6c-0.2-0.4-0.6-0.5-1.1-0.5c-0.2,0-0.5,0-0.7,0.1
		c-0.2,0.1-0.4,0.2-0.6,0.4s-0.4,0.3-0.5,0.6c-0.1,0.2-0.3,0.5-0.3,0.7v3.8h-0.8v-8.8h0.8v3.9c0.2-0.5,0.6-0.8,1-1.1
		c0.4-0.3,0.9-0.4,1.4-0.4c0.4,0,0.7,0.1,0.9,0.2c0.2,0.1,0.5,0.3,0.6,0.6c0.2,0.2,0.3,0.5,0.3,0.9c0.1,0.3,0.1,0.7,0.1,1.1V56.4z"
		/>
	<path class="st0" d="M182.9,48.9v-1.2h0.8v1.2H182.9z M182.9,56.4v-6.3h0.8v6.3H182.9z"/>
	<path class="st0" d="M190.7,56.4h-0.8v-3.5c0-0.7-0.1-1.3-0.3-1.6c-0.2-0.3-0.6-0.5-1-0.5c-0.2,0-0.5,0-0.7,0.1
		c-0.2,0.1-0.5,0.2-0.7,0.4s-0.4,0.3-0.5,0.6c-0.2,0.2-0.3,0.5-0.3,0.7v3.8h-0.8v-6.3h0.7v1.4c0.3-0.5,0.6-0.8,1.1-1.1
		c0.5-0.3,1-0.4,1.6-0.4c0.3,0,0.6,0.1,0.9,0.2s0.4,0.3,0.6,0.5c0.1,0.2,0.2,0.5,0.3,0.9c0.1,0.3,0.1,0.7,0.1,1.1V56.4z"/>
	<path class="st0" d="M195,56.5c-0.4,0-0.8-0.1-1.2-0.3c-0.4-0.2-0.7-0.4-0.9-0.7s-0.5-0.6-0.6-1c-0.1-0.4-0.2-0.8-0.2-1.2
		c0-0.4,0.1-0.8,0.2-1.2c0.1-0.4,0.3-0.7,0.6-1c0.3-0.3,0.6-0.5,0.9-0.7c0.4-0.2,0.8-0.3,1.2-0.3c0.5,0,1,0.1,1.4,0.4
		c0.4,0.3,0.7,0.6,1,1v-1.3h0.7v6.3c0,0.4-0.1,0.8-0.2,1.1s-0.4,0.6-0.7,0.8c-0.3,0.2-0.6,0.4-1,0.5c-0.4,0.1-0.8,0.2-1.2,0.2
		c-0.7,0-1.3-0.1-1.7-0.4c-0.4-0.3-0.8-0.6-1.1-1l0.5-0.4c0.2,0.4,0.6,0.7,1,0.9c0.4,0.2,0.8,0.3,1.3,0.3c0.3,0,0.6,0,0.9-0.1
		c0.3-0.1,0.5-0.2,0.7-0.4c0.2-0.2,0.4-0.4,0.5-0.6s0.2-0.5,0.2-0.9v-1.2c-0.2,0.4-0.6,0.7-1,0.9S195.4,56.5,195,56.5z M195.2,55.8
		c0.2,0,0.5,0,0.7-0.1s0.4-0.2,0.6-0.4c0.2-0.1,0.3-0.3,0.5-0.5c0.1-0.2,0.2-0.4,0.3-0.6v-1.9c-0.1-0.2-0.2-0.4-0.4-0.6
		c-0.2-0.2-0.3-0.4-0.5-0.5c-0.2-0.1-0.4-0.2-0.6-0.3c-0.2-0.1-0.4-0.1-0.7-0.1c-0.4,0-0.7,0.1-0.9,0.2c-0.3,0.1-0.5,0.3-0.7,0.6
		c-0.2,0.2-0.3,0.5-0.4,0.8c-0.1,0.3-0.2,0.6-0.2,0.9c0,0.3,0.1,0.7,0.2,1c0.1,0.3,0.3,0.6,0.5,0.8c0.2,0.2,0.5,0.4,0.7,0.5
		S194.9,55.8,195.2,55.8z"/>
	<path class="st0" d="M204.5,56.5c-0.3,0-0.6,0-0.8-0.1c-0.3-0.1-0.5-0.2-0.7-0.4c-0.2-0.2-0.3-0.4-0.4-0.6
		c-0.1-0.2-0.2-0.5-0.2-0.8c0-0.3,0.1-0.5,0.2-0.8c0.1-0.2,0.3-0.4,0.5-0.6c0.2-0.2,0.5-0.3,0.8-0.4c0.3-0.1,0.7-0.1,1.1-0.1
		c0.3,0,0.6,0,1,0.1c0.3,0.1,0.6,0.1,0.9,0.2v-0.6c0-0.6-0.2-1-0.5-1.3c-0.3-0.3-0.7-0.5-1.3-0.5c-0.3,0-0.6,0.1-1,0.2
		s-0.7,0.3-1,0.6l-0.3-0.5c0.8-0.5,1.6-0.8,2.4-0.8c0.8,0,1.4,0.2,1.8,0.7c0.4,0.4,0.7,1,0.7,1.8v2.8c0,0.2,0.1,0.3,0.3,0.3v0.7
		c-0.1,0-0.2,0-0.3,0c-0.2,0-0.4-0.1-0.5-0.2c-0.1-0.1-0.2-0.2-0.2-0.4l0-0.5c-0.3,0.4-0.6,0.7-1.1,0.9
		C205.5,56.4,205,56.5,204.5,56.5z M204.7,55.9c0.4,0,0.8-0.1,1.2-0.2c0.4-0.2,0.6-0.4,0.8-0.6c0.1-0.1,0.1-0.1,0.2-0.2
		c0-0.1,0.1-0.2,0.1-0.2v-1c-0.3-0.1-0.6-0.2-0.8-0.2c-0.3-0.1-0.6-0.1-0.9-0.1c-0.6,0-1,0.1-1.4,0.4c-0.4,0.2-0.5,0.6-0.5,0.9
		c0,0.2,0,0.4,0.1,0.5s0.2,0.3,0.3,0.4s0.3,0.2,0.5,0.3C204.3,55.9,204.5,55.9,204.7,55.9z"/>
	<path class="st0" d="M215.6,56.5c-0.5,0-1-0.1-1.4-0.4s-0.7-0.6-1-1v1.2h-0.7v-8.8h0.8v3.8c0.3-0.4,0.6-0.8,1-1s0.8-0.4,1.4-0.4
		c0.4,0,0.8,0.1,1.2,0.3c0.3,0.2,0.6,0.4,0.9,0.7c0.2,0.3,0.4,0.7,0.6,1s0.2,0.8,0.2,1.2c0,0.4-0.1,0.9-0.2,1.2
		c-0.2,0.4-0.4,0.7-0.6,1c-0.3,0.3-0.6,0.5-0.9,0.7S216,56.5,215.6,56.5z M215.4,55.8c0.3,0,0.7-0.1,0.9-0.2
		c0.3-0.1,0.5-0.3,0.7-0.6c0.2-0.2,0.4-0.5,0.5-0.8s0.2-0.6,0.2-0.9c0-0.3-0.1-0.6-0.2-0.9c-0.1-0.3-0.3-0.6-0.5-0.8
		c-0.2-0.2-0.4-0.4-0.7-0.6c-0.3-0.1-0.6-0.2-0.9-0.2c-0.2,0-0.5,0-0.7,0.1s-0.4,0.2-0.6,0.3c-0.2,0.1-0.3,0.3-0.5,0.5
		c-0.1,0.2-0.3,0.4-0.4,0.6v1.9c0,0.2,0.1,0.4,0.3,0.6c0.1,0.2,0.3,0.3,0.5,0.5c0.2,0.1,0.4,0.2,0.6,0.3
		C215,55.8,215.2,55.8,215.4,55.8z"/>
	<path class="st0" d="M222.6,56.5c-0.5,0-0.9-0.1-1.2-0.3s-0.7-0.4-1-0.7c-0.3-0.3-0.5-0.6-0.6-1c-0.2-0.4-0.2-0.8-0.2-1.2
		c0-0.4,0.1-0.9,0.2-1.2c0.2-0.4,0.4-0.7,0.6-1c0.3-0.3,0.6-0.5,1-0.7s0.8-0.3,1.2-0.3c0.4,0,0.9,0.1,1.2,0.3c0.4,0.2,0.7,0.4,1,0.7
		c0.3,0.3,0.5,0.6,0.6,1c0.2,0.4,0.2,0.8,0.2,1.2c0,0.4-0.1,0.8-0.2,1.2c-0.2,0.4-0.4,0.7-0.6,1c-0.3,0.3-0.6,0.5-1,0.7
		S223.1,56.5,222.6,56.5z M220.3,53.3c0,0.4,0.1,0.7,0.2,1c0.1,0.3,0.3,0.6,0.5,0.8c0.2,0.2,0.4,0.4,0.7,0.5
		c0.3,0.1,0.6,0.2,0.9,0.2c0.3,0,0.6-0.1,0.9-0.2s0.5-0.3,0.7-0.5c0.2-0.2,0.4-0.5,0.5-0.8s0.2-0.6,0.2-1c0-0.3-0.1-0.7-0.2-1
		s-0.3-0.6-0.5-0.8c-0.2-0.2-0.4-0.4-0.7-0.5c-0.3-0.1-0.6-0.2-0.9-0.2c-0.3,0-0.6,0.1-0.9,0.2c-0.3,0.1-0.5,0.3-0.7,0.5
		c-0.2,0.2-0.4,0.5-0.5,0.8C220.4,52.6,220.3,53,220.3,53.3z"/>
	<path class="st0" d="M229.7,56.5c-0.5,0-0.9-0.1-1.2-0.3s-0.7-0.4-1-0.7c-0.3-0.3-0.5-0.6-0.6-1c-0.2-0.4-0.2-0.8-0.2-1.2
		c0-0.4,0.1-0.9,0.2-1.2c0.2-0.4,0.4-0.7,0.6-1c0.3-0.3,0.6-0.5,1-0.7s0.8-0.3,1.2-0.3c0.4,0,0.9,0.1,1.2,0.3c0.4,0.2,0.7,0.4,1,0.7
		c0.3,0.3,0.5,0.6,0.6,1c0.2,0.4,0.2,0.8,0.2,1.2c0,0.4-0.1,0.8-0.2,1.2c-0.2,0.4-0.4,0.7-0.6,1c-0.3,0.3-0.6,0.5-1,0.7
		S230.2,56.5,229.7,56.5z M227.5,53.3c0,0.4,0.1,0.7,0.2,1c0.1,0.3,0.3,0.6,0.5,0.8c0.2,0.2,0.4,0.4,0.7,0.5
		c0.3,0.1,0.6,0.2,0.9,0.2c0.3,0,0.6-0.1,0.9-0.2s0.5-0.3,0.7-0.5c0.2-0.2,0.4-0.5,0.5-0.8s0.2-0.6,0.2-1c0-0.3-0.1-0.7-0.2-1
		s-0.3-0.6-0.5-0.8c-0.2-0.2-0.4-0.4-0.7-0.5c-0.3-0.1-0.6-0.2-0.9-0.2c-0.3,0-0.6,0.1-0.9,0.2c-0.3,0.1-0.5,0.3-0.7,0.5
		c-0.2,0.2-0.4,0.5-0.5,0.8C227.5,52.6,227.5,53,227.5,53.3z"/>
	<path class="st0" d="M238.7,56.4l-2.3-3.2l-1.3,1.2v2h-0.8v-8.8h0.8v6l3.5-3.4h0.9l-2.6,2.6l2.7,3.7H238.7z"/>
	<path class="st0" d="M240.5,56.4v-1.2h0.7v1.2H240.5z"/>
	<path class="st0" d="M142,70.8v-8.5h0.8v7.8h4.9v0.7H142z"/>
	<path class="st0" d="M149.8,70.8l-2.5-6.3h0.8l2.1,5.5l2.2-5.5h0.8l-2.5,6.3H149.8z"/>
	<path class="st0" d="M154.3,63.3v-1.2h0.8v1.2H154.3z M154.3,70.8v-6.3h0.8v6.3H154.3z"/>
	<path class="st0" d="M158.8,70.8l-2.5-6.3h0.8l2.1,5.5l2.2-5.5h0.8l-2.5,6.3H158.8z"/>
	<path class="st0" d="M162.9,71.8l0.2-1h-0.3v-1.1h0.8v1.1l-0.3,1H162.9z"/>
	<path class="st0" d="M165.1,70.8c0-0.3,0-0.5,0.1-0.8c0-0.3,0.1-0.5,0.3-0.8c0.1-0.3,0.3-0.5,0.6-0.8c0.3-0.3,0.6-0.5,1-0.7
		c0.2-0.1,0.5-0.2,0.7-0.4s0.5-0.2,0.7-0.4c0.2-0.1,0.4-0.3,0.5-0.5c0.1-0.2,0.2-0.4,0.2-0.6c0-0.2,0-0.3-0.1-0.5
		c-0.1-0.1-0.2-0.3-0.3-0.4c-0.1-0.1-0.3-0.2-0.5-0.3c-0.2-0.1-0.4-0.1-0.7-0.1c-0.3,0-0.5,0-0.7,0.1s-0.4,0.2-0.5,0.3
		c-0.2,0.1-0.3,0.2-0.4,0.3c-0.1,0.1-0.2,0.2-0.3,0.3l-0.5-0.6c0,0,0.1-0.1,0.3-0.3c0.1-0.1,0.3-0.3,0.5-0.4
		c0.2-0.1,0.5-0.2,0.8-0.3c0.3-0.1,0.6-0.2,1-0.2s0.7,0.1,1,0.2c0.3,0.1,0.5,0.2,0.7,0.4s0.4,0.4,0.5,0.6c0.1,0.2,0.2,0.5,0.2,0.7
		c0,0.3-0.1,0.6-0.2,0.9c-0.1,0.2-0.3,0.4-0.5,0.6s-0.4,0.3-0.7,0.5c-0.2,0.1-0.5,0.2-0.6,0.3c-0.3,0.1-0.5,0.2-0.8,0.4
		c-0.2,0.1-0.5,0.3-0.7,0.5c-0.2,0.2-0.3,0.4-0.5,0.6s-0.2,0.4-0.2,0.7h4.3v0.7H165.1z"/>
	<path class="st0" d="M177.5,67.3c0,0.5-0.1,1-0.2,1.5c-0.2,0.4-0.4,0.8-0.6,1.2c-0.3,0.3-0.6,0.6-1,0.8c-0.4,0.2-0.8,0.3-1.2,0.3
		s-0.8-0.1-1.2-0.3s-0.7-0.4-1-0.8c-0.3-0.3-0.5-0.7-0.6-1.2c-0.2-0.4-0.2-0.9-0.2-1.5c0-0.5,0.1-1,0.2-1.5c0.2-0.4,0.4-0.8,0.6-1.2
		c0.3-0.3,0.6-0.6,1-0.8c0.4-0.2,0.8-0.3,1.2-0.3s0.8,0.1,1.2,0.3c0.4,0.2,0.7,0.4,1,0.8c0.3,0.3,0.5,0.7,0.6,1.2
		C177.4,66.3,177.5,66.8,177.5,67.3z M176.7,67.3c0-0.4-0.1-0.8-0.2-1.2c-0.1-0.4-0.3-0.7-0.4-0.9c-0.2-0.3-0.4-0.4-0.7-0.6
		c-0.3-0.1-0.6-0.2-0.9-0.2c-0.3,0-0.6,0.1-0.9,0.2c-0.3,0.1-0.5,0.3-0.7,0.6c-0.2,0.3-0.3,0.6-0.5,0.9c-0.1,0.4-0.2,0.7-0.2,1.2
		c0,0.4,0.1,0.8,0.2,1.2c0.1,0.4,0.3,0.7,0.5,0.9c0.2,0.3,0.4,0.4,0.7,0.6c0.3,0.1,0.6,0.2,0.9,0.2c0.3,0,0.6-0.1,0.9-0.2
		c0.3-0.1,0.5-0.3,0.7-0.6c0.2-0.3,0.3-0.6,0.4-0.9C176.6,68.1,176.7,67.7,176.7,67.3z"/>
	<path class="st0" d="M178.7,70.8c0-0.3,0-0.5,0.1-0.8c0-0.3,0.1-0.5,0.3-0.8c0.1-0.3,0.3-0.5,0.6-0.8s0.6-0.5,1-0.7
		c0.2-0.1,0.5-0.2,0.7-0.4s0.5-0.2,0.7-0.4c0.2-0.1,0.4-0.3,0.5-0.5c0.1-0.2,0.2-0.4,0.2-0.6c0-0.2,0-0.3-0.1-0.5
		c-0.1-0.1-0.2-0.3-0.3-0.4c-0.1-0.1-0.3-0.2-0.5-0.3c-0.2-0.1-0.4-0.1-0.7-0.1c-0.3,0-0.5,0-0.7,0.1s-0.4,0.2-0.5,0.3
		c-0.2,0.1-0.3,0.2-0.4,0.3c-0.1,0.1-0.2,0.2-0.3,0.3l-0.5-0.6c0,0,0.1-0.1,0.3-0.3c0.1-0.1,0.3-0.3,0.5-0.4s0.5-0.2,0.8-0.3
		c0.3-0.1,0.6-0.2,1-0.2c0.4,0,0.7,0.1,1,0.2c0.3,0.1,0.5,0.2,0.7,0.4c0.2,0.2,0.4,0.4,0.5,0.6c0.1,0.2,0.2,0.5,0.2,0.7
		c0,0.3-0.1,0.6-0.2,0.9c-0.1,0.2-0.3,0.4-0.5,0.6s-0.4,0.3-0.7,0.5s-0.5,0.2-0.6,0.3c-0.3,0.1-0.5,0.2-0.8,0.4
		c-0.2,0.1-0.5,0.3-0.7,0.5c-0.2,0.2-0.4,0.4-0.5,0.6s-0.2,0.4-0.2,0.7h4.3v0.7H178.7z"/>
	<path class="st0" d="M191.1,67.3c0,0.5-0.1,1-0.2,1.5c-0.2,0.4-0.4,0.8-0.6,1.2s-0.6,0.6-1,0.8s-0.8,0.3-1.2,0.3
		c-0.4,0-0.8-0.1-1.2-0.3c-0.4-0.2-0.7-0.4-1-0.8c-0.3-0.3-0.5-0.7-0.6-1.2c-0.2-0.4-0.2-0.9-0.2-1.5c0-0.5,0.1-1,0.2-1.5
		c0.2-0.4,0.4-0.8,0.6-1.2c0.3-0.3,0.6-0.6,1-0.8c0.4-0.2,0.8-0.3,1.2-0.3c0.4,0,0.8,0.1,1.2,0.3c0.4,0.2,0.7,0.4,1,0.8
		s0.5,0.7,0.6,1.2C191,66.3,191.1,66.8,191.1,67.3z M190.3,67.3c0-0.4-0.1-0.8-0.2-1.2c-0.1-0.4-0.3-0.7-0.5-0.9s-0.4-0.4-0.7-0.6
		c-0.3-0.1-0.6-0.2-0.9-0.2c-0.3,0-0.6,0.1-0.9,0.2c-0.3,0.1-0.5,0.3-0.7,0.6c-0.2,0.3-0.3,0.6-0.4,0.9c-0.1,0.4-0.2,0.7-0.2,1.2
		c0,0.4,0.1,0.8,0.2,1.2c0.1,0.4,0.3,0.7,0.4,0.9c0.2,0.3,0.4,0.4,0.7,0.6c0.3,0.1,0.6,0.2,0.9,0.2c0.3,0,0.6-0.1,0.9-0.2
		c0.3-0.1,0.5-0.3,0.7-0.6s0.3-0.6,0.5-0.9C190.2,68.1,190.3,67.7,190.3,67.3z"/>
</g>
</svg>
