<?xml version="1.0" encoding="utf-8"?>
<!-- Generator: Adobe Illustrator 21.1.0, SVG Export Plug-In . SVG Version: 6.00 Build 0)  -->
<svg version="1.1" id="Layer_1" xmlns="http://www.w3.org/2000/svg" xmlns:xlink="http://www.w3.org/1999/xlink" x="0px" y="0px"
	 viewBox="0 0 10374.6 606.7" style="enable-background:new 0 0 10374.6 606.7;" xml:space="preserve">
<style type="text/css">
	.st0{fill:#FFFFFF;}
</style>
<g>
	<path class="st0" d="M192.2,13.1v21.6H183c-32.6,0-43.9,21.4-43.9,31.6v474.9c0,10.2,11.2,31.6,43.9,31.6h9.2v21.6H0v-21.6h9.2
		c32.6,0,43.9-21.4,43.9-31.6V66.3c0-10.2-11.2-31.6-43.9-31.6H0V13.1H192.2z"/>
	<path class="st0" d="M392.9,42.5c0,69.7-62.2,93.3-62.2,93.3l-1.5,0.6H297l17.9-16c12.2-10.9,22.4-24.7,25.3-38.5
		c-17.3-4.7-30-20.9-30-39.4c0-22.6,18.2-41.7,41.7-41.7C374.3,0.7,392.9,19.6,392.9,42.5z"/>
	<path class="st0" d="M579.2,541.2c0,10.2,11.2,31.6,43.9,31.6h9.2v21.6H493.1v-21.6h9.2c31.7,0,43.9-21.7,43.9-31.6V66.3
		c0-9.9-12.1-31.6-43.9-31.6h-9.2V13.1h137.8l175.7,445.3c59.2-148.8,118.9-301.5,175.7-445.2l6.2-0.1c0,0,34.1-0.4,68.9-0.4
		c16.3,0,36.6,0.1,50.6,0.4l9,0.2v21.4h-9.2c-32.6,0-43.9,21.4-43.9,31.6v474.9c0,10.2,11.2,31.6,43.9,31.6h9.2v21.6H924.8v-21.6
		h9.2c32.6,0,43.9-21.4,43.9-31.6V114.6l-183.7,466h-31.2c-61.7-155-122.8-310.7-183.7-465.9V541.2z"/>
	<path class="st0" d="M1696.1,13.1h49.5l208,534.8c5.3,14.5,18.1,25,41.2,25h9.2v21.6h-162v-21.6h9.2c13.3,0,18.5-3.9,12.7-18.4
		c-18.7-48.8-33.4-86.3-56.9-145.6c-15.4-31.1-81.6-57.7-136.9-36.9c-61.9,24.3-129.5,82.9-166.9,172.6
		c-6.7,18.2-4.7,28.3,16.7,28.3h9.2v21.6h-117.9v-21.6h9.2c28.9,0,42.6-15.6,50.2-35c70.4-178.1,146.5-376,203.8-524.8H1696.1z
		 M1549.1,421c33.9-35.8,72.3-61.5,110.1-76.8c38.9-15.2,78.8-21.9,118.9-10.3c-39.9-103.3-80.1-206.5-96.8-249.1
		C1641.5,186.2,1593.8,304.1,1549.1,421z"/>
	<path class="st0" d="M2747.4,321.7c0-14.4-36.4-14.5-48.8-14.5h-9.2v-24.9h202.8v24.9h-9.2c-12.6,0-49.6-0.1-49.6,14.5v273.6h-24.1
		c0-34.8-4-45.2-35.5-28.8c-43.4,26.2-100.6,40.2-181.4,40.2c-182,0-302.9-112.6-302.9-302.9c0-190.3,121-303.8,302.9-303.8
		c127.5,0,195.3,40.1,239.1,100l5.5,7.5l-77.1,54.5l-5-8.8c-43.2-76-100.4-125.1-162.6-125.1c-98.7,0-208.7,108.3-208.7,275.6
		c0,167.4,110,275.6,208.7,275.6c75.6,0,151.4-24.1,154.8-102.9V321.7z M3134.7,339.1c31.4,17.6,52.8,62.6,61.3,98.8
		c9,38.5,12.2,56.2,24.4,100.9c7.1,26.3,22.9,34,56.4,34h9.2v21.6h-189.7v-21.6h9.2c27.9,0,31.9-4.7,26.2-29.5
		c-13.1-50.6-16.4-70.3-25.2-105c-9.1-34.1-20.2-53.1-30.7-63.6c-13.3-13.3-21.3-12.8-37.2-12.8H2991v-28.1h47.2
		c68.3-3.8,111.1-82.8,111.1-154c0-85.4-21.7-140.1-114-139.3L2889,41.3V13.1l182.2,0c101.6,0,166.7,63.9,166.7,166.7
		C3237.8,250.5,3197.4,309,3134.7,339.1z"/>
	<path class="st0" d="M3533.1,13.1h49.5l208,534.8c5.3,14.5,18.1,25,41.2,25h9.2v21.6h-162v-21.6h9.2c13.3,0,18.5-3.9,12.7-18.4
		c-18.7-48.8-33.4-86.3-56.9-145.6c-15.4-31.1-81.6-57.7-136.9-36.9c-61.9,24.3-129.5,82.9-166.9,172.6
		c-6.7,18.2-4.7,28.3,16.7,28.3h9.2v21.6h-117.9v-21.6h9.2c28.9,0,42.6-15.6,50.2-35c70.4-178.1,146.5-376,203.8-524.8H3533.1z
		 M3386.1,421c33.9-35.8,72.3-61.5,110.1-76.8c38.9-15.2,78.8-21.9,118.9-10.3c-39.9-103.3-80.1-206.5-96.8-249.1
		C3478.4,186.2,3430.8,304.1,3386.1,421z"/>
	<path class="st0" d="M4147.2,394.5c-36.3,0-80.2-0.8-126.3-10.8v156.7c0,9.9,12.3,32.4,43.9,32.4h9.2v21.6h-191.3v-21.6h9.2
		c31.6,0,43.1-22.2,43.1-32.4V66.3c0-10.2-11.5-32.4-43.1-32.4h-9.2V12.2h303.8c101.4,0,166.7,77.4,166.7,179.7
		C4353,296.5,4267.2,394.5,4147.2,394.5z M4151.2,40.4h-130.4v295.3c40.9,20.9,71.1,31.6,126.3,31.6c72.9,0,117.3-102.4,117.3-175.2
		C4264.5,107.2,4242.5,40.4,4151.2,40.4z"/>
	<path class="st0" d="M4620.3,13.1v21.6h-9.2c-31.7,0-43.9,21.7-43.9,31.6v223.4h282V66.3c0-10.2-11.2-31.6-43.9-31.6h-9.2V13.1
		h192.2v21.6h-9.2c-32.6,0-43.9,21.4-43.9,31.6v474.9c0,10.2,11.2,31.6,43.9,31.6h9.2v21.6h-192.2v-21.6h9.2
		c32.6,0,43.9-21.4,43.9-31.6V317h-282v224.2c0,9.9,12.1,31.6,43.9,31.6h9.2v21.6h-191.3v-21.6h9.2c31.7,0,43.9-21.7,43.9-31.6V66.3
		c0-9.9-12.1-31.6-43.9-31.6h-9.2V13.1H4620.3z"/>
	<path class="st0" d="M5268.8,13.1v21.6h-9.2c-32.6,0-43.9,21.4-43.9,31.6v474.9c0,10.2,11.2,31.6,43.9,31.6h9.2v21.6h-192.1v-21.6
		h9.2c32.6,0,43.9-21.4,43.9-31.6V66.3c0-10.2-11.2-31.6-43.9-31.6h-9.2V13.1H5268.8z"/>
	<path class="st0" d="M5652.3,0c125.1,0,194.4,39.2,238.4,100.1l5.4,7.5l-77.1,54.5l-5-8.9c-39.3-70.7-92-125-161.7-125
		c-99.5,0-208.7,108.2-208.7,275.6c0,167.4,109.2,275.6,208.7,275.6c101.5,0,170.8-34.9,215.7-109l5.2-8.7l24.6,18.5
		c-28.9,46.7-85.5,126.5-245.6,126.5c-182.1,0-303.8-112.6-303.8-302.9C5348.6,113.5,5470.4,0,5652.3,0z"/>
	<path class="st0" d="M6502.9,604.2c-59.2,0-108.1,1.6-188.3-9.8h-84.5v-21.6h9.2c31.7,0,43.9-21.7,43.9-31.6V66.3
		c0-9.9-12.1-31.6-43.9-31.6h-9.2V13.1h305.4c163.9,0,240.9,125.1,240.9,290.7C6776.4,483.6,6688.6,604.2,6502.9,604.2z
		 M6503.7,40.4h-135.3v518c28.9,10.1,61.8,17.7,134.5,17.7c135.9,0,187.5-130,187.5-272.4C6690.4,152.8,6652.1,40.4,6503.7,40.4z"/>
	<path class="st0" d="M6990.4,40.4v248.5h169.5c46,0,59.4-61.9,59.4-101.8v-9.2h25.7v251.7h-25.7v-9.2c0-40.4-12.9-101.8-59.4-101.8
		h-169.5v248.5h229.9c61.2,0,80.6-55.6,80.6-108.3v-9.2h27.6l-3.7,144.8h-472.6v-21.6h9.2c31.7,0,43.9-21.7,43.9-31.6V66.3
		c0-9.9-12.1-31.6-43.9-31.6h-9.2V13.1H7310l3.7,144.8h-27.6v-9.2c0-52.9-19.3-108.3-80.6-108.3H6990.4z"/>
	<path class="st0" d="M7625.9,0c73.5,0,172.3,10.3,239.1,100l5.7,7.6l-80.1,55.8l-3.7-12c-18.4-59.3-51.9-121.7-136.5-121.7
		c-49.1,0-83.2,11.9-104.9,29.3c-21.7,17.4-31.6,40.4-32,65.3c-0.2,20.7,10.1,39.1,28.9,56.9c18.8,17.7,45.8,34.1,76.3,49.1
		c61.2,30.1,136.3,54.9,189.9,80.6c62.9,30.7,91,80.5,88.4,128.7c-7,121.4-112.9,167-243.4,167c-100.4,0-202.9-26.1-245.5-103.5
		l-4-7.3l73.5-50.7l4.7,9.4c10.2,20.4,19.2,34.8,37.9,55.4c25.5,28,64.2,57.1,118.2,63.7c108.2,12.4,161.9-21.7,161.9-109.2
		c0-33.3-11.1-52.3-30.9-68.4c-19.8-16-49.1-28-83.4-42.3c-71.4-28.2-144.1-58-195.7-97c-42.4-32.1-85.4-79.4-64.2-154.6
		C7446.7,30.6,7519.4,0,7617,0H7625.9z"/>
	<path class="st0" d="M8177,13.1v21.6h-9.2c-32.6,0-43.9,21.4-43.9,31.6v474.9c0,10.2,11.2,31.6,43.9,31.6h9.2v21.6h-192.1v-21.6
		h9.2c32.6,0,43.9-21.4,43.9-31.6V66.3c0-10.2-11.2-31.6-43.9-31.6h-9.2V13.1H8177z"/>
	<path class="st0" d="M8714.3,359.2c0-14.4-36.4-14.5-48.8-14.5h-9.2v-24.9h202.8v24.9h-9.2c-12.6,0-49.6-0.1-49.6,14.5v236h-24.1
		v-9.2c0-11.8-1.8-19.2-3.8-23c-5.3-10.2-19-3.3-31.7,3.3c-43.4,26.2-100.6,40.2-181.4,40.2c-182,0-302.9-112.6-302.9-302.9
		c0-190.3,121-303.8,302.9-303.8c127.5,0,195.3,40.1,239.1,100l5.5,7.5L8727,162l-5-8.8c-43.2-76-100.4-125.1-162.6-125.1
		c-98.7,0-208.7,108.3-208.7,275.6c0,167.4,110,275.6,208.7,275.6c75.6,0,151.4-24.1,154.8-102.9V359.2z"/>
	<path class="st0" d="M9446.6,41.2v248.5l169.5-0.8c45.5,0,59.4-62.5,59.4-101.8v-9.2h25.7v251.7h-25.7v-9.2
		c0-39.9-13.4-101.8-59.4-101.8l-169.5,0.8v248.5l229.9-0.8c60.6,0,80.6-56,80.6-108.3v-9.2h27.7l-0.4,9.5
		c-1.6,42.3-2.4,83.9-3.3,126.3l-0.2,9h-421.9L9016.5,90.4v450.8c0,9.6,13,31.6,43.9,31.6h9.2v21.6h-139.1v-21.6h9.2
		c30.1,0,43.9-21.2,43.9-31.6V66.3c0-9.6-13-31.6-43.9-31.6h-9.2V13.1h134l2.7,4c0,0,182.1,266.2,294.2,430V66.3
		c0-11.6-13.7-31.6-43.9-31.6h-9.2V13.1h457.9l3.7,144.8h-27.6v-9.2c0-52.4-19.9-108.3-80.6-108.3L9446.6,41.2z"/>
	<path class="st0" d="M10227.9,339.3c30.4,17.9,48.3,62.8,56.7,98.7c9,38.5,12.2,56.2,24.4,100.9c7.1,26.3,22.9,34,56.4,34h9.2v21.6
		h-189.7v-21.6h9.2c27.9,0,32.5-4.6,26.2-29.4c-12.6-50.5-16.4-70.3-25.3-105.2c-9.2-34.3-19.3-53.6-28.6-63.9
		c-9.2-10.2-17.2-12.5-26.6-13.3c-42,2.2-94.6,0.2-140.6-9.9v190.1c0,10.2,11.2,31.6,43.9,31.6h9.2v21.6h-192.2v-21.6h9.2
		c32.6,0,43.9-21.4,43.9-31.6V66.3c0-10.2-11.2-31.6-43.9-31.6h-9.2V13.1h304.6c101.6,0,166.7,63.8,166.7,166.7
		C10331.4,250.7,10290.8,309.2,10227.9,339.3z M10128.9,40.4l-129.6,0.8v261.1c41.7,21.7,70.1,32.3,126.2,31.5l0.1,0
		c73.1,0,117.3-81.4,117.3-154C10242.8,94.3,10221.2,39.7,10128.9,40.4z"/>
</g>
</svg>
