<?xml version="1.0" encoding="utf-8"?>
<!-- Generator: Adobe Illustrator 21.1.0, SVG Export Plug-In . SVG Version: 6.00 Build 0)  -->
<svg version="1.1" id="Layer_1" xmlns="http://www.w3.org/2000/svg" xmlns:xlink="http://www.w3.org/1999/xlink" x="0px" y="0px"
	 viewBox="0 0 14.9 14.9" style="enable-background:new 0 0 14.9 14.9;" xml:space="preserve">
<style type="text/css">
	.st0{fill:#FFFFFF;}
</style>
<g id="XMLID_1_">
	<path id="XMLID_6_" class="st0" d="M10.6,0H4.3C1.9,0,0,1.9,0,4.3v6.3c0,2.4,1.9,4.3,4.3,4.3h6.3c2.4,0,4.3-1.9,4.3-4.3V4.3
		C14.9,1.9,13,0,10.6,0z M13.5,10.7c0,1.6-1.3,2.9-2.9,2.9H4.2c-1.6,0-2.9-1.3-2.9-2.9V4.3c0-1.6,1.3-2.9,2.9-2.9h6.4
		c1.6,0,2.9,1.3,2.9,2.9V10.7z"/>
	<path id="XMLID_3_" class="st0" d="M7.5,3.6c-2.1,0-3.9,1.7-3.9,3.9s1.7,3.9,3.9,3.9c2.1,0,3.9-1.7,3.9-3.9S9.6,3.6,7.5,3.6z
		 M7.5,10c-1.4,0-2.5-1.1-2.5-2.5C4.9,6.1,6.1,5,7.5,5C8.8,5,10,6.1,10,7.5C10,8.9,8.8,10,7.5,10z"/>
	<circle id="XMLID_2_" class="st0" cx="11.5" cy="3.5" r="0.9"/>
</g>
</svg>
