<?xml version="1.0" encoding="utf-8"?>
<!-- Generator: Adobe Illustrator 21.1.0, SVG Export Plug-In . SVG Version: 6.00 Build 0)  -->
<svg version="1.1" id="Layer_1" xmlns="http://www.w3.org/2000/svg" xmlns:xlink="http://www.w3.org/1999/xlink" x="0px" y="0px"
	 viewBox="0 0 1095.6 1147.4" style="enable-background:new 0 0 1095.6 1147.4;" xml:space="preserve">
<style type="text/css">
	.st0{fill:#FFFFFF;}
</style>
<path class="st0" d="M358.7,225.3c20-8.1,37.1-15.5,54.5-22c80.5-29.8,163.7-34.7,248.2-25.4c80.2,8.8,155.4,33.4,221.9,79.4
	c82.1,56.9,143.8,130.3,179.5,225.4c21.8,58.2,32.1,118,32.8,179c1.4,109.4-28.4,210-95.5,298c-50.6,66.4-117,110.7-193,144.5
	c-79.5,35.4-162.5,42.9-247.3,42.7c-130.3-0.2-260.5-1.9-390.8-2.3c-50.4-0.2-100.7,1.7-151.1,2.1c-6.5,0.1-16.8,4.2-17.9-8
	c-1-11.3,4.7-18.3,16.3-19.6c23.2-2.6,46.6-4.4,69.7-7.7c11.5-1.6,22.8-5.1,34-8.6c37.8-11.8,52-42.1,57.3-77.5
	c3.8-25.6,6.6-51.6,6.7-77.4c0.5-250.9,0.5-501.8,0-752.8c-0.1-27.3-3.1-54.8-6.7-82c-5.6-41.3-31.5-65.6-70.9-74.2
	C80.8,33.3,54.2,31.4,28,28.7c-8.2-0.8-14-1.7-13.7-11.7c0.3-9.2,0.4-17.9,13.4-16.9c4,0.3,8.1,0,12.2,0c276.4,0,552.7,0,829.1,0
	c24.8,0,26,0,27.3,23.9c3.3,60.9,5.6,121.9,7.5,182.9c0.1,4.6-6.3,13.2-9.8,13.3c-6.1,0.1-15.2-3.3-18-8.1
	c-6-10.4-8.8-22.7-12.8-34.2c-18.1-51.7-55.3-85-106.9-97.6c-45.1-11-92.1-17.7-138.5-19.5c-79.8-3.2-159.8-1.1-239.7-1.2
	c-19.9,0-20.9,1-21,20.5c-0.1,42.2-0.1,84.5,0,126.7C357.4,211.8,358.1,216.8,358.7,225.3z M916.5,576.6c1.2-0.6,2.3-1.1,3.5-1.7
	c-0.2-4.4,0-8.9-0.6-13.2c-9.5-62.5-29-121.2-62.6-175.4C790.1,278.9,693.7,225,568,222.1c-66-1.5-129.3,11.6-190.4,36.2
	c-13.5,5.5-20.8,14.4-20.8,31.3c0.2,101.8-1,203.5-1.7,305.3c-1,140.4-2,280.9-3.4,421.3c-0.1,12.3,3.8,21.1,13.3,28.9
	c42.3,35.1,90.5,55.5,145.4,61.1c49.2,5,98.1,2.8,145.3-10.6c45.2-12.8,86-36.3,121.9-67.5c56.2-48.8,97.9-108.1,121.9-177.9
	c19.8-57.4,27.5-117.8,28.4-178.7c0.2-14.2-8.5-26.4-22.9-27.4c-10.2-0.7-22.6-0.2-30.7,5c-28.5,18.4-56.3,38.1-82.9,59.1
	c-35.7,28.3-74.1,51.5-119.2,58.8c-116.8,19-206.8-29.6-280.1-116.4c-4.7-5.6-4.6-15.3-6.7-23.1c37.4,27.1,75.6,44.4,121,44.6
	c51.7,0.2,96-19.8,137.5-48c39.7-26.9,73-63,118.8-81.6c44.6-18.1,88.7-21,130.4,13.1C901.3,562.3,908.8,569.6,916.5,576.6z"/>
</svg>
