<?xml version="1.0" encoding="utf-8"?>
<!-- Generator: Adobe Illustrator 21.1.0, SVG Export Plug-In . SVG Version: 6.00 Build 0)  -->
<svg version="1.1" id="Layer_1" xmlns="http://www.w3.org/2000/svg" xmlns:xlink="http://www.w3.org/1999/xlink" x="0px" y="0px"
	 viewBox="0 0 14.6 15.8" style="enable-background:new 0 0 14.6 15.8;" xml:space="preserve">
<style type="text/css">
	.st0{fill:#FFFFFF;}
</style>
<g>
	<path class="st0" d="M13.4,8.9c-0.4,3.2-2.7,3.4-3.1,3.6c-0.2,0.1-1.9,0.5-4,0.3l-2.3,2.5l0-2.9l0,0c-3.1-0.9-3-4.1-2.9-5.8
		c0-1.7,0.3-3.1,1.3-4.1c1.7-1.6,5.1-1.3,5.1-1.3c2.9,0,4.3,0.9,4.6,1.2C13.3,3.3,13.8,5.5,13.4,8.9 M13,1.5C12.6,1.2,11,0,7.6,0
		c0,0-4.1-0.3-6.1,1.6C0.4,2.8,0.1,4.4,0,6.5c0,2.1-0.1,5.9,3.5,6.9l0,0l0,1.6c0,0,0,0.6,0.4,0.8c0.5,0.2,0.8-0.3,1.3-0.9
		c0.3-0.3,0.6-0.7,0.9-1c2.5,0.2,4.4-0.3,4.6-0.3c0.5-0.2,3.3-0.5,3.8-4.4C15,5.2,14.3,2.7,13,1.5"/>
	<path class="st0" d="M10.8,9.3c0,0-0.5-0.4-0.7-0.6C9.9,8.6,9.5,8.4,9.3,8.3C9,8.1,8.6,8.2,8.5,8.4L8.2,8.8C8.1,9,7.8,8.9,7.8,8.9
		C7.3,8.8,6.8,8.5,6.4,8.1c-0.5-0.5-0.8-1-0.9-1.5l0,0c0-0.2,0-0.3,0.1-0.4l0,0c0.2-0.2,0.6-0.4,0.6-0.6c0.1-0.4-0.5-1.2-0.6-1.3
		c0,0-0.5-0.6-0.6-0.7C4.8,3.3,4.5,3.2,4.3,3.4l0,0c-0.8,0.5-1.1,0.9-1,1.3l0,0.2c0.4,1.3,1.2,2.6,2.4,3.9C6.8,10,8,10.7,9.3,11.2
		c0.3,0.1,0.7,0,1-0.3l0,0c0.3-0.2,0.5-0.5,0.6-0.8l0,0C11,9.8,11,9.5,10.8,9.3"/>
	<path class="st0" d="M8.9,6.5C8.8,6.5,8.8,6.5,8.9,6.5C8.7,6.1,8.7,5.9,8.5,5.7C8.3,5.5,8.1,5.4,7.8,5.4c-0.1,0-0.1,0-0.1-0.1
		c0-0.1,0-0.1,0.1-0.1c0.4,0,0.6,0.1,0.8,0.3C8.8,5.8,8.9,6.1,8.9,6.5C8.9,6.5,8.9,6.5,8.9,6.5L8.9,6.5"/>
	<path class="st0" d="M9.8,6.8L9.8,6.8C9.7,6.8,9.7,6.8,9.8,6.8C9.7,6.1,9.5,5.6,9.1,5.1C8.9,4.9,8.7,4.8,8.4,4.7
		C8.2,4.5,7.9,4.5,7.5,4.4c-0.1,0-0.1,0-0.1-0.1c0-0.1,0-0.1,0.1-0.1C8.3,4.3,8.8,4.6,9.3,5C9.7,5.5,9.9,6.1,9.8,6.8
		C9.9,6.8,9.8,6.8,9.8,6.8"/>
	<path class="st0" d="M10.7,7.2C10.6,7.2,10.6,7.2,10.7,7.2c-0.1-0.7-0.2-1.2-0.3-1.6c-0.2-0.4-0.4-0.8-0.7-1.1
		C9.3,4.1,8.9,3.9,8.5,3.7C8.1,3.6,7.7,3.5,7.2,3.5c-0.1,0-0.1,0-0.1-0.1c0-0.1,0-0.1,0.1-0.1h0c1,0,1.9,0.4,2.5,1
		c0.3,0.3,0.6,0.7,0.8,1.2C10.7,6,10.8,6.5,10.7,7.2C10.8,7.2,10.8,7.2,10.7,7.2L10.7,7.2z"/>
</g>
</svg>
